<svg width="89" height="100" viewBox="0 0 89 100" fill="none" xmlns="http://www.w3.org/2000/svg">
<path d="M17.5308 66.0671C13.8493 65.6776 10.0392 66.6196 6.96999 68.6799C6.40247 69.0613 5.84849 69.4898 5.47195 70.0598C4.6078 71.3683 4.8665 73.1281 5.49633 74.5619C7.72714 79.6367 13.4904 81.9437 18.3895 84.5741C24.9248 88.0817 24.6363 86.8849 29.1886 92.7211C30.6298 94.5686 31.9843 96.5467 33.9035 97.897C36.7317 99.8846 40.424 100.236 43.8684 99.8751C47.3128 99.514 78.685 93.3127 81.3614 91.6633C82.3136 91.0758 83.217 90.2726 83.511 89.1959C83.8049 88.1206 83.2428 86.7677 82.147 86.5346" fill="#E1E0DF"/>
<path d="M50.5297 91.7685L50.1577 87.5365C50.1577 87.5365 51.0589 86.249 51.5739 87.1503C52.0889 88.0515 51.5739 87.4078 52.0889 89.0815C52.6039 90.7552 51.7776 91.3525 51.7776 91.3525L50.5297 91.7685Z" fill="#101010"/>
<path d="M50.7379 88.6486C52.0898 90.0005 50.9833 92.6011 49.8879 91.5745C48.7924 90.5479 49.3861 87.2967 50.7379 88.6486Z" fill="#3643BA"/>
<path d="M50.4303 89.2711C50.851 89.99 50.5419 91.1795 50.1066 90.7715C49.6712 90.3636 50.0097 88.5522 50.4303 89.2711Z" fill="#101010"/>
<path d="M23.2323 79.9413L22.8604 75.7094C22.8604 75.7094 23.7616 74.4219 24.2766 75.3231C24.7916 76.2244 24.2766 75.5806 24.7916 77.2543C25.3065 78.928 24.4802 79.5253 24.4802 79.5253L23.2323 79.9413Z" fill="#101010"/>
<path d="M23.4401 76.8214C24.792 78.1733 23.6855 80.774 22.59 79.7473C21.4945 78.7207 22.0882 75.4695 23.4401 76.8214Z" fill="#3643BA"/>
<path d="M23.133 77.444C23.5536 78.1628 23.2446 79.3524 22.8092 78.9444C22.3739 78.5364 22.7123 76.7251 23.133 77.444Z" fill="#101010"/>
<path d="M64.453 89.3998L64.0811 85.1679C64.0811 85.1679 64.9823 83.8804 65.4973 84.7816C66.0123 85.6829 65.4973 85.0391 66.0123 86.7128C66.5273 88.3865 65.7009 88.9838 65.7009 88.9838L64.453 89.3998Z" fill="#101010"/>
<path d="M64.6608 86.2799C66.0127 87.6318 64.9062 90.2325 63.8107 89.2058C62.7152 88.1792 63.3089 84.928 64.6608 86.2799Z" fill="#3643BA"/>
<path d="M64.3537 86.9024C64.7743 87.6213 64.4653 88.8109 64.0299 88.4029C63.5946 87.9949 63.933 86.1836 64.3537 86.9024Z" fill="#101010"/>
<path d="M19.7535 72.4714C19.2 70.0203 16.5908 41.3984 16.5908 41.3984C16.5908 41.3984 43.4733 51.2026 51.0636 53.7327C58.6539 56.2628 75.4159 52.4677 75.4159 52.4677L68.2209 82.9081C68.2209 82.9081 67.1931 86.9364 63.6351 88.838C59.0493 91.2891 49.9567 88.838 49.9567 88.838C49.9567 88.838 25.9997 78.7176 23.5486 77.6897C21.0976 76.6619 20.3069 74.9224 19.7535 72.4714Z" fill="#3643BA"/>
<path d="M50.884 70.2967C50.7269 73.6539 50.524 77.0081 50.3003 80.3609C50.2363 81.3155 50.1713 82.2684 50.1031 83.2218C50.0711 83.6863 50.7951 83.6978 50.8272 83.2333C51.0646 79.8696 51.2832 76.5033 51.466 73.1355C51.5176 72.1923 51.5646 71.2493 51.6084 70.3068C51.6303 69.8409 50.9063 69.8294 50.8844 70.2953L50.884 70.2967Z" fill="white"/>
<path d="M51.0632 65.7781C51.0387 66.5466 51.0105 67.3171 50.98 68.0854C50.9728 68.2749 51.1436 68.4593 51.3368 68.454C51.53 68.4488 51.6973 68.3002 51.7055 68.0973C51.7364 67.3276 51.7641 66.5585 51.7887 65.79C51.7945 65.6001 51.6265 65.4165 51.4319 65.4213C51.2373 65.4262 51.07 65.5748 51.0632 65.7781Z" fill="white"/>
<path d="M55.9288 74.185C56.0774 73.8953 56.3109 73.584 56.6631 73.5811C56.9934 73.5781 57.2593 73.8539 57.4129 74.1309C57.84 74.9005 57.7806 75.7991 57.6846 76.6407C57.4682 78.5483 57.1281 80.4391 56.6658 82.299C56.5753 82.6615 56.474 83.0364 56.2161 83.316C55.9582 83.5955 55.4992 83.7505 55.1336 83.5708C54.7275 83.371 54.6212 82.8838 54.5902 82.4656C54.5499 81.939 54.5493 81.4114 54.5876 80.8879C54.5876 80.8879 55.4761 75.0694 55.9288 74.185Z" fill="#E1E3F5"/>
<path d="M56.2134 73.9507C56.1939 73.9157 56.1733 73.8814 56.1504 73.8475C56.0619 73.9492 55.9882 74.0679 55.9291 74.1841C55.4764 75.0685 54.5879 80.887 54.5879 80.887C54.5496 81.4105 54.5502 81.9382 54.5905 82.4648C54.6124 82.7471 54.6676 83.0602 54.826 83.2957C54.8965 83.2491 54.9615 83.1955 55.0166 83.1358C55.2745 82.8562 55.3758 82.4813 55.4662 82.1188C55.9286 80.2589 56.2697 78.3683 56.4852 76.4597C56.5802 75.618 56.6406 74.7196 56.2135 73.9499L56.2134 73.9507Z" fill="#3643BA"/>
<path d="M55.1756 77.8913C55.3083 76.7431 55.4905 75.601 55.7262 74.4671C55.7864 74.1774 55.8049 73.4628 56.4306 73.5381C57.1025 73.619 57.2054 74.2162 57.2181 74.5918C57.2975 76.8691 56.9385 79.1244 56.4716 81.3382C56.406 81.6498 56.3372 81.961 56.2674 82.272C56.2106 82.524 56.1728 82.7887 56.0261 83.0188C55.9221 83.1815 55.7389 83.3246 55.4634 83.305C55.2985 83.2938 55.0436 83.2162 55.0514 83.0737C55.0611 82.8886 54.6575 82.8309 54.6487 83.0177C54.6269 83.4486 55.3376 83.684 55.8291 83.5682C56.4888 83.4125 56.5694 82.7744 56.6663 82.347C56.9448 81.116 57.1946 79.8795 57.3692 78.6325C57.5438 77.3856 57.6423 76.1561 57.6269 74.9046C57.6207 74.4027 57.6414 73.7704 56.9797 73.4185C56.7174 73.2791 56.391 73.2032 56.0906 73.2637C55.7902 73.3242 55.5882 73.5279 55.4963 73.7429C55.3692 74.0406 55.3322 74.3671 55.2701 74.6776C55.2014 75.0177 55.1381 75.3593 55.079 75.7014C54.9572 76.4103 54.8547 77.1225 54.7725 77.8376C54.7508 78.0227 55.1534 78.0795 55.1753 77.8936L55.1756 77.8913Z" fill="#101010"/>
<path d="M60.6964 73.8622C60.845 73.5726 61.0785 73.2612 61.4307 73.2584C61.761 73.2553 62.0269 73.5311 62.1805 73.8081C62.6076 74.5778 62.5482 75.4764 62.4522 76.3179C62.2357 78.2256 61.8957 80.1163 61.4333 81.9763C61.3429 82.3387 61.2416 82.7136 60.9837 82.9932C60.7258 83.2728 60.2668 83.4277 59.9012 83.248C59.4951 83.0482 59.3888 82.561 59.3578 82.1429C59.3174 81.6163 59.3169 81.0886 59.3551 80.5652C59.3551 80.5652 60.2437 74.7466 60.6964 73.8622Z" fill="#E1E3F5"/>
<path d="M60.9809 73.6289C60.9615 73.594 60.9409 73.5596 60.918 73.5257C60.8295 73.6274 60.7558 73.7461 60.6967 73.8623C60.244 74.7467 59.3555 80.5653 59.3555 80.5653C59.3172 81.0887 59.3177 81.6164 59.3581 82.143C59.38 82.4253 59.4352 82.7384 59.5936 82.9739C59.664 82.9274 59.7291 82.8738 59.7842 82.814C60.0421 82.5344 60.1434 82.1595 60.2338 81.7971C60.6962 79.9371 61.0373 78.0465 61.2528 76.1379C61.3477 75.2962 61.4082 74.3978 60.9811 73.6281L60.9809 73.6289Z" fill="#3643BA"/>
<path d="M59.6252 82.1262C59.629 82.3164 59.6448 82.5074 59.6826 82.6976C59.7153 82.8629 59.7452 83.0466 59.8471 83.2036C59.939 83.3459 60.1069 83.4637 60.323 83.4921C60.5391 83.5206 60.7475 83.4528 60.9012 83.361C61.2423 83.158 61.4593 82.8299 61.6369 82.5394C61.8244 82.233 61.9576 81.9081 62.0663 81.5791C62.3768 80.6374 62.5244 79.6489 62.6479 78.675C62.7713 77.7011 62.8476 76.7729 62.8211 75.8125C62.8094 75.4004 62.7828 74.9846 62.6978 74.5717C62.6389 74.2865 62.5593 73.9781 62.3555 73.7172C62.1775 73.4888 61.8472 73.2907 61.486 73.3918C61.2048 73.4706 61.043 73.6916 60.9308 73.8812C60.7663 74.1572 60.6702 74.4607 60.5966 74.7603C60.5577 74.9203 60.5263 75.0814 60.5025 75.2435C60.4754 75.4278 60.8769 75.4844 60.9052 75.2995C60.9493 74.9997 61.0129 74.7011 61.1199 74.4132C61.2017 74.1928 61.2981 73.9541 61.4901 73.774C61.5485 73.7197 61.6124 73.6724 61.6901 73.6582C61.6598 73.6634 61.7167 73.6565 61.7265 73.657C61.733 73.6572 61.7209 73.6578 61.7533 73.6608C61.8127 73.6667 61.7302 73.6466 61.784 73.6682C61.8058 73.6767 61.8672 73.7063 61.8164 73.6789C61.8398 73.6915 61.8619 73.7048 61.8851 73.7189C61.9274 73.7443 61.8732 73.7024 61.9126 73.7407C61.9326 73.7606 61.954 73.7792 61.9729 73.7998C61.9824 73.8097 61.9907 73.8202 62.0002 73.8301C61.9777 73.8044 61.9976 73.8258 62.0066 73.8388C62.0247 73.8647 62.0429 73.8899 62.0589 73.9155C62.0926 73.9694 62.1205 74.0255 62.1463 74.0814C62.1653 74.1238 62.1884 74.1825 62.2101 74.251C62.2352 74.3263 62.2559 74.4018 62.2743 74.4777C62.3607 74.837 62.3951 75.1992 62.4135 75.5584C62.4582 76.4394 62.3938 77.3169 62.2989 78.1863C62.2112 78.9912 62.0849 79.7907 61.9125 80.583C61.7773 81.2041 61.6145 81.8269 61.2711 82.3956C61.1843 82.5389 61.0882 82.6785 60.9756 82.8103C60.875 82.9282 60.7711 83.0534 60.6174 83.1374C60.509 83.1965 60.3473 83.2528 60.2432 83.1408C60.1286 83.018 60.1156 82.8312 60.0885 82.6948C60.0543 82.5246 60.0346 82.3533 60.0312 82.1827C60.0296 82.1036 59.9686 82.0273 59.8504 82.0108C59.7516 81.9971 59.627 82.0469 59.6274 82.1265L59.6252 82.1262Z" fill="#101010"/>
<path d="M61.9864 60.957C62.135 60.6673 62.3686 60.3559 62.7208 60.3531C63.051 60.3501 63.3169 60.6259 63.4705 60.9029C63.8977 61.6725 63.8382 62.5711 63.7422 63.4126C63.5258 65.3203 63.1857 67.211 62.7234 69.071C62.6329 69.4335 62.5316 69.8084 62.2737 70.0879C62.0158 70.3675 61.5568 70.5225 61.1912 70.3428C60.7851 70.1429 60.6788 69.6557 60.6478 69.2376C60.6075 68.711 60.6069 68.1833 60.6452 67.6599C60.6452 67.6599 61.5337 61.8413 61.9864 60.957Z" fill="#E1E3F5"/>
<path d="M62.271 60.7236C62.2516 60.6887 62.2309 60.6543 62.208 60.6204C62.1196 60.7221 62.0458 60.8408 61.9867 60.9571C61.534 61.8414 60.6455 67.66 60.6455 67.66C60.6072 68.1834 60.6078 68.7111 60.6481 69.2377C60.67 69.52 60.7253 69.8331 60.8836 70.0686C60.9541 70.0221 61.0191 69.9685 61.0742 69.9087C61.3321 69.6291 61.4334 69.2542 61.5238 68.8918C61.9862 67.0318 62.3273 65.1412 62.5428 63.2327C62.6378 62.391 62.6982 61.4925 62.2711 60.7229L62.271 60.7236Z" fill="#3643BA"/>
<path d="M60.9153 69.221C60.9191 69.4111 60.9348 69.6022 60.9726 69.7924C61.0053 69.9577 61.0353 70.1413 61.1371 70.2983C61.2291 70.4406 61.397 70.5584 61.6131 70.5869C61.8292 70.6154 62.0375 70.5475 62.1913 70.4558C62.5324 70.2527 62.7494 69.9247 62.9269 69.6341C63.1144 69.3277 63.2477 69.0029 63.3563 68.6738C63.6669 67.7322 63.8144 66.7436 63.9379 65.7697C64.0614 64.7958 64.1376 63.8676 64.1111 62.9072C64.0994 62.4951 64.0729 62.0793 63.9878 61.6664C63.9289 61.3812 63.8494 61.0728 63.6455 60.8119C63.4676 60.5835 63.1373 60.3854 62.7761 60.4866C62.4949 60.5653 62.3331 60.7863 62.2208 60.9759C62.0564 61.252 61.9602 61.5554 61.8866 61.855C61.8477 62.015 61.8164 62.1761 61.7925 62.3382C61.7654 62.5225 62.167 62.5792 62.1953 62.3942C62.2393 62.0945 62.303 61.7958 62.41 61.5079C62.4917 61.2875 62.5882 61.0489 62.7801 60.8687C62.8385 60.8144 62.9025 60.7671 62.9802 60.753C62.9498 60.7581 63.0067 60.7512 63.0165 60.7518C63.0231 60.7519 63.0109 60.7526 63.0434 60.7555C63.1028 60.7614 63.0202 60.7414 63.0741 60.7629C63.0958 60.7714 63.1572 60.801 63.1065 60.7736C63.1298 60.7863 63.152 60.7995 63.1751 60.8136C63.2174 60.839 63.1633 60.7972 63.2026 60.8354C63.2227 60.8554 63.2441 60.8739 63.2629 60.8945C63.2724 60.9044 63.2808 60.9149 63.2903 60.9248C63.2677 60.8991 63.2876 60.9206 63.2967 60.9335C63.3148 60.9595 63.333 60.9846 63.3489 61.0103C63.3827 61.0641 63.4106 61.1203 63.4363 61.1761C63.4553 61.2186 63.4785 61.2772 63.5002 61.3458C63.5253 61.4211 63.5459 61.4965 63.5644 61.5724C63.6507 61.9317 63.6851 62.2939 63.7036 62.6531C63.7483 63.5341 63.6839 64.4117 63.5889 65.2811C63.5012 66.0859 63.3749 66.8854 63.2025 67.6777C63.0674 68.2989 62.9045 68.9216 62.5612 69.4904C62.4744 69.6336 62.3782 69.7732 62.2657 69.905C62.1651 70.0229 62.0612 70.1482 61.9074 70.2321C61.799 70.2912 61.6373 70.3475 61.5332 70.2355C61.4187 70.1127 61.4056 69.9259 61.3785 69.7895C61.3444 69.6193 61.3246 69.448 61.3212 69.2774C61.3197 69.1984 61.2586 69.122 61.1405 69.1056C61.0417 69.0918 60.9171 69.1416 60.9174 69.2213L60.9153 69.221Z" fill="#101010"/>
<path d="M56.4449 60.7636C56.5935 60.4739 56.8271 60.1626 57.1793 60.1597C57.5095 60.1567 57.7754 60.4325 57.929 60.7095C58.3561 61.4791 58.2967 62.3777 58.2007 63.2193C57.9843 65.1269 57.6442 67.0177 57.1819 68.8777C57.0914 69.2401 56.9901 69.615 56.7322 69.8946C56.4743 70.1742 56.0153 70.3291 55.6497 70.1494C55.2436 69.9496 55.1373 69.4624 55.1063 69.0443C55.066 68.5177 55.0654 67.99 55.1037 67.4665C55.1037 67.4665 55.9922 61.648 56.4449 60.7636Z" fill="#E1E3F5"/>
<path d="M56.7295 60.5293C56.7101 60.4943 56.6894 60.46 56.6665 60.4261C56.5781 60.5278 56.5043 60.6465 56.4452 60.7627C55.9925 61.6471 55.104 67.4656 55.104 67.4656C55.0657 67.9891 55.0663 68.5168 55.1066 69.0434C55.1285 69.3257 55.1838 69.6388 55.3421 69.8743C55.4126 69.8277 55.4776 69.7741 55.5327 69.7144C55.7906 69.4348 55.8919 69.0599 55.9823 68.6975C56.4447 66.8375 56.7858 64.9469 57.0013 63.0383C57.0963 62.1966 57.1567 61.2982 56.7296 60.5285L56.7295 60.5293Z" fill="#3643BA"/>
<path d="M55.6917 64.47C55.8244 63.3217 56.0066 62.1796 56.2424 61.0457C56.3025 60.756 56.321 60.0414 56.9467 60.1167C57.6186 60.1976 57.7215 60.7948 57.7342 61.1704C57.8136 63.4477 57.4546 65.703 56.9877 67.9168C56.9221 68.2284 56.8534 68.5396 56.7835 68.8506C56.7267 69.1026 56.6889 69.3673 56.5422 69.5974C56.4383 69.7601 56.255 69.9032 55.9795 69.8837C55.8146 69.8724 55.5597 69.7949 55.5675 69.6524C55.5772 69.4672 55.1736 69.4095 55.1648 69.5964C55.1431 70.0272 55.8537 70.2626 56.3452 70.1468C57.0049 69.9911 57.0855 69.353 57.1824 68.9256C57.4609 67.6946 57.7107 66.4581 57.8853 65.2112C58.0599 63.9642 58.1585 62.7347 58.143 61.4832C58.1368 60.9813 58.1575 60.349 57.4958 59.9971C57.2335 59.8577 56.9071 59.7818 56.6067 59.8423C56.3063 59.9028 56.1043 60.1065 56.0124 60.3216C55.8853 60.6192 55.8483 60.9457 55.7862 61.2562C55.7176 61.5963 55.6542 61.9379 55.5951 62.28C55.4733 62.9889 55.3708 63.7011 55.2886 64.4163C55.2669 64.6013 55.6695 64.6581 55.6914 64.4723L55.6917 64.47Z" fill="#101010"/>
<path d="M67.6593 61.1367C67.8079 60.847 68.0414 60.5356 68.3936 60.5328C68.7238 60.5298 68.9898 60.8056 69.1434 61.0825C69.5705 61.8522 69.5111 62.7508 69.4151 63.5923C69.1986 65.5 68.8586 67.3907 68.3962 69.2507C68.3058 69.6131 68.2045 69.988 67.9466 70.2676C67.6887 70.5472 67.2297 70.7021 66.8641 70.5225C66.4579 70.3226 66.3517 69.8354 66.3206 69.4173C66.2803 68.8907 66.2798 68.363 66.318 67.8396C66.318 67.8396 67.2066 62.021 67.6593 61.1367Z" fill="#E1E3F5"/>
<path d="M67.9433 60.9028C67.9239 60.8679 67.9033 60.8335 67.8804 60.7996C67.7919 60.9013 67.7182 61.02 67.6591 61.1363C67.2064 62.0206 66.3179 67.8392 66.3179 67.8392C66.2796 68.3626 66.2801 68.8903 66.3205 69.4169C66.3424 69.6992 66.3976 70.0123 66.556 70.2478C66.6264 70.2013 66.6915 70.1477 66.7466 70.0879C67.0045 69.8083 67.1058 69.4334 67.1962 69.071C67.6586 67.211 67.9997 65.3204 68.2152 63.4118C68.3101 62.5701 68.3706 61.6717 67.9435 60.9021L67.9433 60.9028Z" fill="#3643BA"/>
<path d="M67.846 62.5309C67.8606 62.2231 67.9054 61.9187 67.9844 61.6199C68.0555 61.352 68.1436 61.0739 68.2918 60.8261C68.3352 60.7541 68.4029 60.6441 68.5285 60.6327C68.6596 60.6205 68.7779 60.7399 68.8422 60.8097C69.0443 61.0298 69.1114 61.3115 69.1636 61.5599C69.285 62.1355 69.2331 62.712 69.1987 63.2816C69.1618 63.8906 69.1161 64.4992 69.0543 65.1055C68.9294 66.343 68.7407 67.574 68.4378 68.7844C68.3665 69.0679 68.3062 69.3584 68.1967 69.6335C68.1149 69.8398 67.9634 70.1395 67.6167 70.1647C67.3697 70.1826 67.2553 69.9615 67.1859 69.8223C67.0879 69.6245 67.0409 69.415 67.0161 69.211C66.9704 68.8434 66.9517 68.4787 66.9801 68.1143C67.0203 67.6095 67.1134 67.1105 67.1966 66.6117C67.227 66.4279 66.8243 66.3711 66.7939 66.5557C66.6524 67.4062 66.5049 68.2456 66.6024 69.1176C66.628 69.3459 66.6694 69.571 66.7614 69.7952C66.8478 70.0055 66.9783 70.2507 67.2511 70.3776C67.5855 70.5333 67.9681 70.4359 68.2069 70.2647C68.4937 70.0587 68.5909 69.7476 68.6723 69.4624C69.0502 68.1523 69.2759 66.811 69.4236 65.4636C69.4978 64.7879 69.5514 64.1102 69.5943 63.431C69.6325 62.8058 69.6944 62.169 69.5617 61.5356C69.501 61.2478 69.41 60.9425 69.1904 60.6849C69.0035 60.4654 68.6597 60.2615 68.309 60.3665C67.9582 60.4714 67.852 60.7907 67.7552 61.0316C67.6322 61.3392 67.543 61.6553 67.4912 61.9774C67.4649 62.1415 67.4484 62.3062 67.4414 62.473C67.4327 62.6584 67.8353 62.7159 67.8441 62.529L67.846 62.5309Z" fill="#101010"/>
<path d="M65.8526 74.041C66.0012 73.7513 66.2348 73.4399 66.587 73.4371C66.9172 73.4341 67.1831 73.7098 67.3367 73.9868C67.7639 74.7565 67.7045 75.6551 67.6084 76.4966C67.392 78.4043 67.0519 80.295 66.5896 82.155C66.4991 82.5174 66.3978 82.8923 66.1399 83.1719C65.882 83.4515 65.423 83.6064 65.0575 83.4268C64.6513 83.2269 64.545 82.7397 64.514 82.3216C64.4737 81.795 64.4731 81.2673 64.5114 80.7439C64.5114 80.7439 65.3999 74.9253 65.8526 74.041Z" fill="#E1E3F5"/>
<path d="M66.1367 73.8076C66.1173 73.7727 66.0967 73.7383 66.0738 73.7044C65.9853 73.8061 65.9115 73.9248 65.8525 74.041C65.3998 74.9254 64.5112 80.744 64.5112 80.744C64.4729 81.2674 64.4735 81.7951 64.5138 82.3217C64.5357 82.604 64.591 82.9171 64.7493 83.1526C64.8198 83.1061 64.8848 83.0525 64.9399 82.9927C65.1978 82.7131 65.2991 82.3382 65.3896 81.9758C65.8519 80.1158 66.193 78.2252 66.4086 76.3166C66.5035 75.4749 66.564 74.5765 66.1368 73.8068L66.1367 73.8076Z" fill="#3643BA"/>
<path d="M66.0394 75.4357C66.054 75.1279 66.0987 74.8235 66.1777 74.5247C66.2489 74.2568 66.3369 73.9787 66.4851 73.7308C66.5286 73.6589 66.5963 73.5489 66.7218 73.5374C66.8529 73.5252 66.9713 73.6447 67.0355 73.7145C67.2377 73.9346 67.3048 74.2163 67.357 74.4647C67.4784 75.0403 67.4265 75.6168 67.3921 76.1864C67.3551 76.7954 67.3095 77.404 67.2477 78.0103C67.1227 79.2478 66.934 80.4788 66.6311 81.6892C66.5598 81.9727 66.4996 82.2632 66.3901 82.5383C66.3083 82.7446 66.1568 83.0443 65.8101 83.0694C65.563 83.0874 65.4487 82.8662 65.3793 82.7271C65.2813 82.5293 65.2342 82.3198 65.2094 82.1158C65.1638 81.7482 65.1451 81.3835 65.1734 81.0191C65.2137 80.5143 65.3068 80.0153 65.39 79.5165C65.4203 79.3326 65.0177 79.2759 64.9873 79.4605C64.8458 80.311 64.6982 81.1504 64.7958 82.0224C64.8214 82.2507 64.8628 82.4758 64.9548 82.7C65.0411 82.9103 65.1716 83.1555 65.4445 83.2824C65.7789 83.4381 66.1614 83.3407 66.4003 83.1694C66.687 82.9635 66.7843 82.6524 66.8657 82.3671C67.2435 81.0571 67.4693 79.7158 67.617 78.3684C67.6911 77.6927 67.7448 77.015 67.7876 76.3358C67.8259 75.7106 67.8877 75.0738 67.7551 74.4404C67.6944 74.1526 67.6034 73.8473 67.3837 73.5897C67.1968 73.3701 66.8531 73.1663 66.5023 73.2712C66.1515 73.3762 66.0454 73.6955 65.9486 73.9364C65.8256 74.2439 65.7363 74.5601 65.6846 74.8822C65.6583 75.0463 65.6417 75.211 65.6347 75.3778C65.6261 75.5631 66.0286 75.6207 66.0375 75.4338L66.0394 75.4357Z" fill="#101010"/>
<g opacity="0.9">
<path d="M22.8876 49.0814C22.9661 48.7657 23.1252 48.4112 23.4811 48.3389C23.8148 48.271 24.1525 48.4913 24.3759 48.7345C24.9984 49.4118 25.16 50.3134 25.2719 51.1653C25.5249 53.0964 25.6463 55.0355 25.6381 56.9677C25.6363 57.3439 25.6257 57.7355 25.4346 58.0633C25.2434 58.3912 24.8157 58.6355 24.4022 58.5296C23.942 58.4122 23.7137 57.9504 23.5784 57.5435C23.4079 57.0301 23.2762 56.5085 23.1861 55.9824C23.1861 55.9824 22.6484 50.0477 22.8879 49.083L22.8876 49.0814Z" fill="#E1E3F5"/>
<path d="M25.1586 57.4203C25.2266 57.6262 25.3188 57.8455 25.4528 58.0277C25.6256 57.7071 25.6376 57.3301 25.6393 56.967C25.6486 55.0347 25.5261 53.0957 25.2731 51.1647C25.1694 50.3684 25.0206 49.5287 24.4929 48.8694C24.4842 48.8996 24.4756 48.9297 24.468 48.9598C24.2286 49.9245 24.7663 55.8592 24.7663 55.8592C24.8563 56.3853 24.987 56.907 25.1586 57.4203Z" fill="#3643BA"/>
<path d="M23.2711 57.8776C23.3813 58.2142 23.5847 58.6785 24.119 58.7761C24.7136 58.8848 25.0556 58.4478 25.2091 58.1133C25.3127 57.8876 25.3684 57.6494 25.4326 57.4164C25.5039 57.1596 25.5671 56.9023 25.6245 56.6437C25.7368 56.1362 25.8214 55.6259 25.8773 55.1137C25.9907 54.0671 25.9895 53.015 25.8362 51.9705C25.7604 51.4526 25.6462 50.9381 25.496 50.4292C25.4201 50.1724 25.334 49.9168 25.238 49.6641C25.1524 49.4402 25.0708 49.2105 24.945 48.9957C24.8297 48.7975 24.6654 48.5868 24.3884 48.4844C24.1115 48.3819 23.7741 48.4375 23.5505 48.5953C23.3044 48.7696 23.2255 49.004 23.1417 49.2345C23.0488 49.4915 22.9527 49.738 22.9303 50.0049C22.9237 50.0873 23.0514 50.1524 23.1571 50.1478C23.2844 50.1421 23.3498 50.0685 23.3575 49.9861C23.3751 49.7812 23.4526 49.5834 23.5279 49.3866C23.5929 49.2154 23.6273 49.0334 23.7694 48.8832C23.8781 48.7679 24.0543 48.6829 24.2367 48.7732C24.4191 48.8635 24.5083 49.0247 24.5806 49.1613C24.7992 49.5769 24.9416 50.0219 25.0727 50.4552C25.2117 50.9125 25.3157 51.3755 25.3903 51.8405C25.6859 53.6838 25.5164 55.5556 25.0124 57.3723C24.95 57.5987 24.8971 57.8311 24.7942 58.0511C24.7278 58.1939 24.6198 58.3954 24.4162 58.4678C23.9603 58.6294 23.7412 57.9707 23.6778 57.7792C23.6144 57.5876 23.2114 57.6883 23.2735 57.8783L23.2711 57.8776Z" fill="#101010"/>
</g>
<path d="M27.8177 51.3248C27.9015 50.9876 28.0686 50.6111 28.4294 50.5407C28.7678 50.4749 29.1049 50.7186 29.327 50.9847C29.9453 51.7255 30.0937 52.6963 30.1922 53.6123C30.4169 55.6902 30.5086 57.7728 30.4689 59.8461C30.4614 60.2497 30.4445 60.6693 30.2454 61.0167C30.0463 61.3641 29.611 61.6165 29.1944 61.494C28.7305 61.3572 28.5084 60.8574 28.3778 60.4173C28.2133 59.8627 28.0899 59.2992 28.0074 58.7333C28.0074 58.7333 27.5593 52.3533 27.8164 51.3233L27.8177 51.3248Z" fill="#E1E3F5"/>
<path d="M30.0122 60.3719C30.0783 60.5944 30.1679 60.8317 30.2997 61.0299C30.4802 60.6893 30.4979 60.2859 30.5046 59.8955C30.5443 57.8221 30.4526 55.7387 30.2279 53.6616C30.1352 52.8048 29.9993 51.9008 29.4771 51.1811C29.4672 51.2134 29.4585 51.2457 29.4508 51.2779C29.1937 52.308 29.6418 58.6879 29.6418 58.6879C29.7243 59.2539 29.8488 59.8173 30.0122 60.3719Z" fill="#3643BA"/>
<path d="M28.7678 50.5028C28.9686 50.4746 29.1647 50.6514 29.2647 50.7498C29.4227 50.9062 29.5379 51.0837 29.6339 51.2628C29.8349 51.6353 29.9439 52.0284 30.0132 52.4232C30.1657 53.3031 30.1791 54.1999 30.21 55.0854C30.2422 56.018 30.2493 56.9507 30.228 57.8838C30.2181 58.3459 30.2014 58.8082 30.1778 59.2699C30.156 59.6951 30.1649 60.1344 30.0225 60.5496C29.9565 60.7424 29.8492 60.9328 29.6481 61.0748C29.4967 61.1815 29.2821 61.2517 29.0799 61.1735C28.8777 61.0953 28.77 60.941 28.6896 60.8011C28.5841 60.6159 28.5177 60.4202 28.4671 60.2239C28.4461 60.1434 28.3678 60.075 28.2416 60.0799C28.1382 60.084 28.0197 60.1586 28.0397 60.2407C28.1357 60.6124 28.258 61.0294 28.6379 61.3111C29.0177 61.5929 29.5865 61.5462 29.9637 61.2778C30.4003 60.9672 30.5014 60.491 30.5478 60.073C30.6027 59.5743 30.614 59.0715 30.6323 58.571C30.6699 57.5381 30.6744 56.5049 30.6469 55.4721C30.6337 54.9614 30.6113 54.4511 30.5821 53.941C30.5544 53.465 30.5289 52.9873 30.4547 52.5139C30.3804 52.0406 30.2488 51.5182 29.975 51.0584C29.747 50.6756 29.3309 50.1173 28.6304 50.2156C28.5176 50.2314 28.462 50.3376 28.496 50.4086C28.5369 50.4948 28.6529 50.5203 28.7668 50.5044L28.7678 50.5028Z" fill="#101010"/>
<g opacity="0.9">
<path d="M32.8676 53.328C32.9461 53.0123 33.1052 52.6577 33.4611 52.5855C33.7947 52.5176 34.1324 52.7379 34.3559 52.9811C34.9784 53.6584 35.14 54.56 35.2519 55.4119C35.5049 57.343 35.6263 59.2821 35.6181 61.2143C35.6163 61.5904 35.6057 61.9821 35.4146 62.3099C35.2234 62.6378 34.7957 62.8821 34.3822 62.7762C33.922 62.6588 33.6937 62.197 33.5584 61.7901C33.3879 61.2767 33.2561 60.7551 33.1661 60.229C33.1661 60.229 32.6284 54.2943 32.8678 53.3296L32.8676 53.328Z" fill="#E1E3F5"/>
<path d="M35.1386 61.6669C35.2066 61.8727 35.2988 62.0921 35.4328 62.2743C35.6056 61.9537 35.6176 61.5767 35.6193 61.2136C35.6286 59.2813 35.5061 57.3423 35.2531 55.4113C35.1494 54.615 35.0006 53.7753 34.4729 53.116C34.4642 53.1461 34.4555 53.1763 34.448 53.2064C34.2086 54.1711 34.7462 60.1058 34.7462 60.1058C34.8363 60.6318 34.9669 61.1536 35.1386 61.6669Z" fill="#3643BA"/>
<path d="M33.2516 62.1237C33.3618 62.4603 33.5652 62.9246 34.0995 63.0222C34.6941 63.1309 35.036 62.6939 35.1895 62.3594C35.2931 62.1337 35.3489 61.8954 35.4131 61.6625C35.4843 61.4057 35.5476 61.1484 35.605 60.8898C35.7172 60.3823 35.8018 59.872 35.8578 59.3598C35.9712 58.3132 35.97 57.2611 35.8166 56.2166C35.7409 55.6987 35.6267 55.1842 35.4764 54.6753C35.4005 54.4185 35.3145 54.1629 35.2184 53.9102C35.1328 53.6863 35.0513 53.4566 34.9254 53.2418C34.8101 53.0436 34.6459 52.8329 34.3689 52.7305C34.092 52.628 33.7546 52.6836 33.531 52.8414C33.2849 53.0157 33.206 53.2501 33.1222 53.4806C33.0293 53.7376 32.9332 53.9841 32.9107 54.251C32.9042 54.3334 33.0319 54.3985 33.1376 54.3938C33.2648 54.3882 33.3303 54.3146 33.338 54.2321C33.3556 54.0273 33.4331 53.8295 33.5084 53.6327C33.5734 53.4615 33.6078 53.2795 33.7499 53.1293C33.8585 53.014 34.0348 52.929 34.2172 53.0193C34.3995 53.1096 34.4888 53.2708 34.5611 53.4074C34.7797 53.823 34.9221 54.268 35.0532 54.7013C35.1921 55.1586 35.2962 55.6216 35.3707 56.0866C35.6664 57.9299 35.4969 59.8017 34.9929 61.6184C34.9304 61.8448 34.8776 62.0772 34.7746 62.2972C34.7083 62.44 34.6003 62.6415 34.3967 62.7139C33.9408 62.8755 33.7216 62.2168 33.6583 62.0253C33.5949 61.8337 33.1918 61.9344 33.2539 62.1244L33.2516 62.1237Z" fill="#101010"/>
</g>
<g opacity="0.9">
<path d="M38.1762 55.4803C38.2547 55.1646 38.4138 54.8101 38.7696 54.7378C39.1033 54.6699 39.441 54.8902 39.6645 55.1334C40.287 55.8107 40.4486 56.7123 40.5605 57.5643C40.8135 59.4953 40.9349 61.4344 40.9267 63.3666C40.9249 63.7428 40.9143 64.1344 40.7231 64.4623C40.532 64.7901 40.1043 65.0345 39.6908 64.9286C39.2306 64.8112 39.0023 64.3493 38.867 63.9424C38.6965 63.429 38.5647 62.9074 38.4747 62.3814C38.4747 62.3814 37.937 56.4466 38.1764 55.4819L38.1762 55.4803Z" fill="#E1E3F5"/>
<path d="M40.4472 63.8192C40.5152 64.0251 40.6073 64.2444 40.7414 64.4266C40.9142 64.1061 40.9262 63.729 40.9279 63.366C40.9372 61.4336 40.8147 59.4947 40.5616 57.5636C40.458 56.7674 40.3092 55.9276 39.7815 55.2683C39.7728 55.2985 39.7641 55.3287 39.7566 55.3587C39.5172 56.3234 40.0548 62.2582 40.0548 62.2582C40.1449 62.7842 40.2755 63.3059 40.4472 63.8192Z" fill="#3643BA"/>
<path d="M38.5602 64.2765C38.6704 64.6132 38.8738 65.0774 39.4081 65.175C40.0027 65.2838 40.3446 64.8467 40.4981 64.5123C40.6017 64.2865 40.6575 64.0483 40.7217 63.8153C40.7929 63.5585 40.8562 63.3012 40.9136 63.0426C41.0258 62.5352 41.1104 62.0249 41.1664 61.5126C41.2798 60.466 41.2786 59.414 41.1252 58.3694C41.0495 57.8516 40.9353 57.337 40.785 56.8282C40.7091 56.5713 40.6231 56.3157 40.527 56.063C40.4414 55.8391 40.3599 55.6094 40.234 55.3946C40.1187 55.1964 39.9545 54.9857 39.6775 54.8833C39.4006 54.7809 39.0632 54.8364 38.8396 54.9942C38.5935 55.1685 38.5146 55.4029 38.4308 55.6334C38.3379 55.8904 38.2418 56.1369 38.2193 56.4038C38.2128 56.4862 38.3405 56.5513 38.4462 56.5467C38.5734 56.5411 38.6389 56.4674 38.6466 56.385C38.6642 56.1801 38.7417 55.9824 38.817 55.7855C38.882 55.6144 38.9164 55.4323 39.0585 55.2822C39.1671 55.1668 39.3434 55.0818 39.5258 55.1721C39.7081 55.2625 39.7974 55.4236 39.8697 55.5603C40.0883 55.9759 40.2307 56.4209 40.3618 56.8541C40.5007 57.3115 40.6048 57.7744 40.6793 58.2395C40.975 60.0827 40.8055 61.9546 40.3015 63.7713C40.239 63.9976 40.1862 64.23 40.0832 64.45C40.0169 64.5928 39.9089 64.7944 39.7053 64.8667C39.2494 65.0283 39.0302 64.3696 38.9668 64.1781C38.9035 63.9866 38.5004 64.0873 38.5625 64.2772L38.5602 64.2765Z" fill="#101010"/>
</g>
<g opacity="0.9">
<path d="M43.3383 57.7577C43.4168 57.442 43.5759 57.0874 43.9318 57.0152C44.2654 56.9473 44.6031 57.1676 44.8266 57.4108C45.4491 58.0881 45.6107 58.9897 45.7226 59.8416C45.9756 61.7727 46.097 63.7117 46.0888 65.644C46.087 66.0201 46.0764 66.4118 45.8853 66.7396C45.6941 67.0675 45.2664 67.3118 44.8529 67.2059C44.3927 67.0885 44.1644 66.6267 44.0291 66.2198C43.8586 65.7064 43.7269 65.1847 43.6368 64.6587C43.6368 64.6587 43.0991 58.724 43.3385 57.7593L43.3383 57.7577Z" fill="#E1E3F5"/>
<path d="M45.6093 66.0966C45.6773 66.3024 45.7695 66.5218 45.9035 66.704C46.0763 66.3834 46.0883 66.0064 46.09 65.6433C46.0993 63.711 45.9768 61.772 45.7238 59.841C45.6201 59.0447 45.4713 58.2049 44.9436 57.5457C44.9349 57.5758 44.9262 57.606 44.9187 57.6361C44.6793 58.6007 45.217 64.5355 45.217 64.5355C45.307 65.0615 45.4376 65.5833 45.6093 66.0966Z" fill="#3643BA"/>
<path d="M43.7223 66.5539C43.8325 66.8905 44.0359 67.3547 44.5702 67.4523C45.1648 67.5611 45.5067 67.124 45.6602 66.7896C45.7638 66.5639 45.8196 66.3256 45.8838 66.0927C45.955 65.8359 46.0183 65.5786 46.0757 65.3199C46.1879 64.8125 46.2725 64.3022 46.3285 63.7899C46.4419 62.7434 46.4407 61.6913 46.2873 60.6467C46.2116 60.1289 46.0974 59.6144 45.9471 59.1055C45.8712 58.8487 45.7852 58.5931 45.6891 58.3404C45.6035 58.1165 45.522 57.8867 45.3961 57.6719C45.2809 57.4737 45.1166 57.2631 44.8396 57.1606C44.5627 57.0582 44.2253 57.1137 44.0017 57.2716C43.7556 57.4459 43.6767 57.6802 43.5929 57.9108C43.5 58.1678 43.4039 58.4143 43.3814 58.6812C43.3749 58.7636 43.5026 58.8287 43.6083 58.824C43.7355 58.8184 43.801 58.7448 43.8087 58.6623C43.8263 58.4575 43.9038 58.2597 43.9791 58.0629C44.0441 57.8917 44.0785 57.7097 44.2206 57.5595C44.3292 57.4441 44.5055 57.3591 44.6879 57.4495C44.8702 57.5398 44.9595 57.7009 45.0318 57.8376C45.2504 58.2532 45.3928 58.6982 45.5239 59.1315C45.6628 59.5888 45.7669 60.0517 45.8415 60.5168C46.1371 62.36 45.9676 64.2319 45.4636 66.0486C45.4011 66.275 45.3483 66.5074 45.2453 66.7274C45.179 66.8702 45.071 67.0717 44.8674 67.1441C44.4115 67.3057 44.1923 66.647 44.129 66.4554C44.0656 66.2639 43.6625 66.3646 43.7246 66.5546L43.7223 66.5539Z" fill="#101010"/>
</g>
<g opacity="0.9">
<path d="M22.8876 61.9862C22.9661 61.6705 23.1252 61.3159 23.4811 61.2437C23.8148 61.1758 24.1525 61.3961 24.3759 61.6393C24.9984 62.3166 25.16 63.2182 25.2719 64.0701C25.5249 66.0012 25.6463 67.9403 25.6381 69.8725C25.6363 70.2486 25.6257 70.6403 25.4346 70.9681C25.2434 71.296 24.8157 71.5403 24.4022 71.4344C23.942 71.317 23.7137 70.8552 23.5784 70.4483C23.4079 69.9349 23.2762 69.4133 23.1861 68.8872C23.1861 68.8872 22.6484 62.9525 22.8879 61.9878L22.8876 61.9862Z" fill="#E1E3F5"/>
<path d="M25.1586 70.3251C25.2266 70.5309 25.3188 70.7503 25.4528 70.9325C25.6256 70.6119 25.6376 70.2349 25.6393 69.8718C25.6486 67.9395 25.5261 66.0005 25.2731 64.0695C25.1694 63.2732 25.0206 62.4335 24.4929 61.7742C24.4842 61.8044 24.4756 61.8345 24.468 61.8646C24.2286 62.8293 24.7663 68.764 24.7663 68.764C24.8563 69.2901 24.987 69.8118 25.1586 70.3251Z" fill="#3643BA"/>
<path d="M23.2711 70.7824C23.3813 71.119 23.5847 71.5833 24.119 71.6809C24.7136 71.7896 25.0556 71.3526 25.2091 71.0181C25.3127 70.7924 25.3684 70.5541 25.4326 70.3212C25.5039 70.0644 25.5671 69.8071 25.6245 69.5484C25.7368 69.041 25.8214 68.5307 25.8773 68.0185C25.9907 66.9719 25.9895 65.9198 25.8362 64.8753C25.7604 64.3574 25.6462 63.8429 25.496 63.334C25.4201 63.0772 25.334 62.8216 25.238 62.5689C25.1524 62.345 25.0708 62.1152 24.945 61.9004C24.8297 61.7023 24.6654 61.4916 24.3884 61.3892C24.1115 61.2867 23.7741 61.3423 23.5505 61.5001C23.3044 61.6744 23.2255 61.9088 23.1417 62.1393C23.0488 62.3963 22.9527 62.6428 22.9303 62.9097C22.9237 62.9921 23.0514 63.0572 23.1571 63.0525C23.2844 63.0469 23.3498 62.9733 23.3575 62.8908C23.3751 62.686 23.4526 62.4882 23.5279 62.2914C23.5929 62.1202 23.6273 61.9382 23.7694 61.788C23.8781 61.6727 24.0543 61.5876 24.2367 61.678C24.4191 61.7683 24.5083 61.9295 24.5806 62.0661C24.7992 62.4817 24.9416 62.9267 25.0727 63.36C25.2117 63.8173 25.3157 64.2803 25.3903 64.7453C25.6859 66.5885 25.5164 68.4604 25.0124 70.2771C24.95 70.5035 24.8971 70.7359 24.7942 70.9559C24.7278 71.0987 24.6198 71.3002 24.4162 71.3726C23.9603 71.5342 23.7412 70.8755 23.6778 70.684C23.6144 70.4924 23.2114 70.5931 23.2735 70.7831L23.2711 70.7824Z" fill="#101010"/>
</g>
<path d="M27.8524 64.2779C27.9362 63.9407 28.1033 63.5642 28.464 63.4938C28.8025 63.428 29.1396 63.6717 29.3616 63.9378C29.98 64.6786 30.1283 65.6495 30.2268 66.5655C30.4516 68.6434 30.5432 70.7259 30.5035 72.7993C30.4961 73.2028 30.4792 73.6224 30.2801 73.9698C30.081 74.3172 29.6456 74.5696 29.2291 74.4471C28.7651 74.3103 28.543 73.8105 28.4125 73.3704C28.2479 72.8159 28.1246 72.2523 28.0421 71.6864C28.0421 71.6864 27.594 65.3065 27.8511 64.2764L27.8524 64.2779Z" fill="#E1E3F5"/>
<path d="M30.0122 73.2767C30.0783 73.4992 30.1679 73.7365 30.2997 73.9347C30.4802 73.5941 30.4979 73.1907 30.5046 72.8002C30.5443 70.7269 30.4526 68.6435 30.2279 66.5664C30.1352 65.7095 29.9993 64.8056 29.4771 64.0859C29.4672 64.1182 29.4585 64.1505 29.4508 64.1827C29.1937 65.2128 29.6418 71.5927 29.6418 71.5927C29.7243 72.1587 29.8488 72.7221 30.0122 73.2767Z" fill="#3643BA"/>
<path d="M28.7678 63.4076C28.9686 63.3793 29.1647 63.5561 29.2647 63.6546C29.4227 63.811 29.5379 63.9885 29.6339 64.1676C29.8349 64.5401 29.9439 64.9332 30.0132 65.328C30.1657 66.2079 30.1791 67.1046 30.21 67.9902C30.2422 68.9228 30.2493 69.8555 30.228 70.7886C30.2181 71.2506 30.2014 71.713 30.1778 72.1747C30.156 72.5998 30.1649 73.0392 30.0225 73.4544C29.9565 73.6472 29.8492 73.8375 29.6481 73.9796C29.4967 74.0863 29.2821 74.1565 29.0799 74.0783C28.8777 74.0001 28.77 73.8458 28.6896 73.7059C28.5841 73.5207 28.5177 73.325 28.4671 73.1287C28.4461 73.0482 28.3678 72.9798 28.2416 72.9847C28.1382 72.9888 28.0197 73.0633 28.0397 73.1455C28.1357 73.5172 28.258 73.9342 28.6379 74.2159C29.0177 74.4977 29.5865 74.4509 29.9637 74.1825C30.4003 73.872 30.5014 73.3958 30.5478 72.9778C30.6027 72.4791 30.614 71.9763 30.6323 71.4758C30.6699 70.4429 30.6744 69.4097 30.6469 68.3769C30.6337 67.8662 30.6113 67.3559 30.5821 66.8458C30.5544 66.3698 30.5289 65.8921 30.4547 65.4187C30.3804 64.9453 30.2488 64.423 29.975 63.9632C29.747 63.5804 29.3309 63.0221 28.6304 63.1204C28.5176 63.1362 28.462 63.2424 28.496 63.3134C28.5369 63.3996 28.6529 63.4251 28.7668 63.4092L28.7678 63.4076Z" fill="#101010"/>
<g opacity="0.9">
<path d="M32.8676 66.2333C32.9461 65.9175 33.1052 65.563 33.4611 65.4908C33.7947 65.4229 34.1324 65.6432 34.3559 65.8864C34.9784 66.5637 35.14 67.4653 35.2519 68.3172C35.5049 70.2482 35.6263 72.1873 35.6181 74.1196C35.6163 74.4957 35.6057 74.8873 35.4146 75.2152C35.2234 75.543 34.7957 75.7874 34.3822 75.6815C33.922 75.5641 33.6937 75.1022 33.5584 74.6954C33.3879 74.182 33.2561 73.6603 33.1661 73.1343C33.1661 73.1343 32.6284 67.1995 32.8678 66.2349L32.8676 66.2333Z" fill="#E1E3F5"/>
<path d="M35.1386 74.5722C35.2066 74.778 35.2988 74.9973 35.4328 75.1796C35.6056 74.859 35.6176 74.482 35.6193 74.1189C35.6286 72.1866 35.5061 70.2476 35.2531 68.3165C35.1494 67.5203 35.0006 66.6805 34.4729 66.0213C34.4642 66.0514 34.4555 66.0816 34.448 66.1117C34.2086 67.0763 34.7462 73.0111 34.7462 73.0111C34.8363 73.5371 34.9669 74.0589 35.1386 74.5722Z" fill="#3643BA"/>
<path d="M33.2516 75.029C33.3618 75.3656 33.5652 75.8298 34.0995 75.9274C34.6941 76.0362 35.036 75.5991 35.1895 75.2647C35.2931 75.039 35.3489 74.8007 35.4131 74.5678C35.4843 74.311 35.5476 74.0537 35.605 73.795C35.7172 73.2876 35.8018 72.7773 35.8578 72.265C35.9712 71.2185 35.97 70.1664 35.8166 69.1218C35.7409 68.604 35.6267 68.0895 35.4764 67.5806C35.4005 67.3238 35.3145 67.0682 35.2184 66.8155C35.1328 66.5916 35.0513 66.3618 34.9254 66.147C34.8101 65.9488 34.6459 65.7382 34.3689 65.6357C34.092 65.5333 33.7546 65.5888 33.531 65.7467C33.2849 65.9209 33.206 66.1553 33.1222 66.3859C33.0293 66.6429 32.9332 66.8894 32.9107 67.1563C32.9042 67.2387 33.0319 67.3038 33.1376 67.2991C33.2648 67.2935 33.3303 67.2199 33.338 67.1374C33.3556 66.9326 33.4331 66.7348 33.5084 66.538C33.5734 66.3668 33.6078 66.1848 33.7499 66.0346C33.8585 65.9192 34.0348 65.8342 34.2172 65.9246C34.3995 66.0149 34.4888 66.176 34.5611 66.3127C34.7797 66.7283 34.9221 67.1733 35.0532 67.6066C35.1921 68.0639 35.2962 68.5268 35.3707 68.9919C35.6664 70.8351 35.4969 72.707 34.9929 74.5237C34.9304 74.7501 34.8776 74.9825 34.7746 75.2025C34.7083 75.3453 34.6003 75.5468 34.3967 75.6192C33.9408 75.7808 33.7216 75.1221 33.6583 74.9305C33.5949 74.739 33.1918 74.8397 33.2539 75.0297L33.2516 75.029Z" fill="#101010"/>
</g>
<g opacity="0.9">
<path d="M38.1762 68.9935C38.2547 68.6778 38.4138 68.3233 38.7696 68.251C39.1033 68.1831 39.441 68.4034 39.6645 68.6466C40.287 69.3239 40.4486 70.2255 40.5605 71.0775C40.8135 73.0085 40.9349 74.9476 40.9267 76.8798C40.9249 77.256 40.9143 77.6476 40.7231 77.9754C40.532 78.3033 40.1043 78.5477 39.6908 78.4418C39.2306 78.3243 39.0023 77.8625 38.867 77.4556C38.6965 76.9422 38.5647 76.4206 38.4747 75.8946C38.4747 75.8946 37.937 69.9598 38.1764 68.9951L38.1762 68.9935Z" fill="#E1E3F5"/>
<path d="M40.4467 77.3324C40.5147 77.5383 40.6069 77.7576 40.7409 77.9398C40.9137 77.6193 40.9257 77.2422 40.9274 76.8791C40.9367 74.9468 40.8142 73.0078 40.5612 71.0768C40.4575 70.2806 40.3087 69.4408 39.781 68.7815C39.7723 68.8117 39.7636 68.8418 39.7561 68.8719C39.5167 69.8366 40.0544 75.7713 40.0544 75.7713C40.1444 76.2974 40.275 76.8191 40.4467 77.3324Z" fill="#3643BA"/>
<path d="M38.5602 77.7897C38.6704 78.1263 38.8738 78.5906 39.4081 78.6882C40.0027 78.7969 40.3446 78.3599 40.4981 78.0254C40.6017 77.7997 40.6575 77.5615 40.7217 77.3285C40.7929 77.0717 40.8562 76.8144 40.9136 76.5558C41.0258 76.0483 41.1104 75.5381 41.1664 75.0258C41.2798 73.9792 41.2786 72.9271 41.1252 71.8826C41.0495 71.3647 40.9353 70.8502 40.785 70.3413C40.7091 70.0845 40.6231 69.8289 40.527 69.5762C40.4414 69.3523 40.3599 69.1226 40.234 68.9078C40.1187 68.7096 39.9545 68.4989 39.6775 68.3965C39.4006 68.294 39.0632 68.3496 38.8396 68.5074C38.5935 68.6817 38.5146 68.9161 38.4308 69.1466C38.3379 69.4036 38.2418 69.6501 38.2193 69.917C38.2128 69.9994 38.3405 70.0645 38.4462 70.0599C38.5734 70.0542 38.6389 69.9806 38.6466 69.8982C38.6642 69.6933 38.7417 69.4956 38.817 69.2987C38.882 69.1276 38.9164 68.9455 39.0585 68.7953C39.1671 68.68 39.3434 68.595 39.5258 68.6853C39.7081 68.7757 39.7974 68.9368 39.8697 69.0734C40.0883 69.4891 40.2307 69.934 40.3618 70.3673C40.5007 70.8247 40.6048 71.2876 40.6793 71.7526C40.975 73.5959 40.8055 75.4677 40.3015 77.2844C40.239 77.5108 40.1862 77.7432 40.0832 77.9632C40.0169 78.106 39.9089 78.3075 39.7053 78.3799C39.2494 78.5415 39.0302 77.8828 38.9668 77.6913C38.9035 77.4997 38.5004 77.6005 38.5625 77.7904L38.5602 77.7897Z" fill="#101010"/>
</g>
<g opacity="0.9">
<path d="M43.3383 71.5746C43.4168 71.2588 43.5759 70.9043 43.9318 70.8321C44.2654 70.7642 44.6031 70.9845 44.8266 71.2277C45.4491 71.905 45.6107 72.8066 45.7226 73.6585C45.9756 75.5896 46.097 77.5286 46.0888 79.4609C46.087 79.837 46.0764 80.2287 45.8853 80.5565C45.6941 80.8843 45.2664 81.1287 44.8529 81.0228C44.3927 80.9054 44.1644 80.4436 44.0291 80.0367C43.8586 79.5233 43.7269 79.0016 43.6368 78.4756C43.6368 78.4756 43.0991 72.5408 43.3385 71.5762L43.3383 71.5746Z" fill="#E1E3F5"/>
<path d="M45.6093 79.9135C45.6773 80.1193 45.7695 80.3386 45.9035 80.5209C46.0763 80.2003 46.0883 79.8233 46.09 79.4602C46.0993 77.5279 45.9768 75.5889 45.7238 73.6578C45.6201 72.8616 45.4713 72.0218 44.9436 71.3626C44.9349 71.3927 44.9262 71.4229 44.9187 71.453C44.6793 72.4176 45.217 78.3524 45.217 78.3524C45.307 78.8784 45.4376 79.4002 45.6093 79.9135Z" fill="#3643BA"/>
<path d="M43.7223 80.3708C43.8325 80.7074 44.0359 81.1716 44.5702 81.2692C45.1648 81.378 45.5067 80.9409 45.6602 80.6065C45.7638 80.3808 45.8196 80.1425 45.8838 79.9096C45.955 79.6528 46.0183 79.3955 46.0757 79.1368C46.1879 78.6294 46.2725 78.1191 46.3285 77.6068C46.4419 76.5603 46.4407 75.5082 46.2873 74.4636C46.2116 73.9458 46.0974 73.4313 45.9471 72.9224C45.8712 72.6656 45.7852 72.41 45.6891 72.1573C45.6035 71.9334 45.522 71.7036 45.3961 71.4888C45.2809 71.2906 45.1166 71.08 44.8396 70.9775C44.5627 70.8751 44.2253 70.9306 44.0017 71.0885C43.7556 71.2627 43.6767 71.4971 43.5929 71.7277C43.5 71.9847 43.4039 72.2312 43.3814 72.4981C43.3749 72.5805 43.5026 72.6456 43.6083 72.6409C43.7355 72.6353 43.801 72.5617 43.8087 72.4792C43.8263 72.2744 43.9038 72.0766 43.9791 71.8798C44.0441 71.7086 44.0785 71.5266 44.2206 71.3764C44.3292 71.261 44.5055 71.176 44.6879 71.2664C44.8702 71.3567 44.9595 71.5178 45.0318 71.6545C45.2504 72.0701 45.3928 72.5151 45.5239 72.9484C45.6628 73.4057 45.7669 73.8686 45.8415 74.3337C46.1371 76.1769 45.9676 78.0488 45.4636 79.8655C45.4011 80.0918 45.3483 80.3243 45.2453 80.5443C45.179 80.6871 45.071 80.8886 44.8674 80.961C44.4115 81.1226 44.1923 80.4639 44.129 80.2723C44.0656 80.0808 43.6625 80.1815 43.7246 80.3715L43.7223 80.3708Z" fill="#101010"/>
</g>
<path d="M56.4962 55.5018C51.517 54.7923 14.3652 40.9221 14.3652 40.9221C14.3652 40.9221 7.92414 36.9425 12.9923 32.4188C19.572 25.5889 33.6205 27.7177 33.6205 27.7177C33.6205 27.7177 70.9648 37.7409 74.3435 38.9827C87.7697 43.9172 81.8588 49.8826 79.277 51.8569C76.6951 53.8313 66.8235 56.2612 56.4962 55.5018Z" fill="#232E9A"/>
<path d="M54.0457 52.188C49.3345 51.5152 15.7663 38.9001 15.7663 38.9001C15.7663 38.9001 10.6698 35.2324 16.6431 31.202C23.3735 26.6606 31.9821 28.1645 31.9821 28.1645C31.9821 28.1645 70.5498 38.0738 73.7467 39.2512C86.4505 43.9298 77.4341 50.0014 77.4341 50.0014C77.4341 50.0014 72.218 54.1223 54.0457 52.188Z" fill="#3643BA"/>
<path d="M53.9099 50.4907C49.4823 49.8582 17.9349 37.9983 17.9349 37.9983C17.9349 37.9983 12.3212 35.5412 17.9349 31.752C24.2602 27.4825 32.1343 29.8352 32.1343 29.8352C32.1343 29.8352 68.7683 38.9036 71.7728 40.0105C83.7117 44.4091 75.8903 48.435 75.8903 48.435C75.8903 48.435 70.9882 52.3092 53.9099 50.4907Z" fill="#3643BA"/>
<path d="M61.8117 55.198C67.431 54.8943 72.8983 53.9831 74.8727 53.2237C74.8727 53.2237 75.3283 53.2237 75.3283 53.6793C75.3283 54.135 75.0246 54.2868 75.0246 54.2868C73.354 55.0462 68.0385 56.164 61.8117 56.413C55.585 56.6621 54.37 55.8212 49.3583 54.4387C44.3465 53.0561 19.7433 43.9595 19.7433 43.9595L13.6685 41.5296C13.6685 41.5296 10.7829 40.0109 10.0236 36.8216C9.2642 33.6323 13.6685 30.7467 13.6685 30.7467C13.6685 30.7467 14.276 30.5948 14.7316 30.7467C15.1872 30.8986 14.5797 31.2023 14.5797 31.2023C14.5797 31.2023 10.4792 33.936 11.2385 36.8216C11.9979 39.7071 14.4278 40.6183 14.4278 40.6183L20.8064 43.2002C20.8064 43.2002 45.2578 52.1606 49.3583 53.3755C53.4588 54.5905 57.5593 55.4279 61.8117 55.198Z" fill="black"/>
<mask id="mask0_2085_13107" style="mask-type:alpha" maskUnits="userSpaceOnUse" x="15" y="28" width="65" height="24">
<path d="M54.2019 50.5899C49.7743 49.9574 18.2269 38.0975 18.2269 38.0975C18.2269 38.0975 12.6132 35.6405 18.2269 31.8513C24.5522 27.5817 33.4867 29.2421 33.4867 29.2421C33.4867 29.2421 69.6199 38.3347 72.6243 39.4416C84.5633 43.8402 76.1823 48.5342 76.1823 48.5342C76.1823 48.5342 71.2802 52.4085 54.2019 50.5899Z" fill="url(#paint0_linear_2085_13107)"/>
</mask>
<g mask="url(#mask0_2085_13107)">
<g opacity="0.9">
<path d="M38.2758 40.1722C38.3543 39.8565 38.5134 39.502 38.8693 39.4297C39.2029 39.3618 39.5406 39.5821 39.7641 39.8253C40.3866 40.5026 40.5482 41.4042 40.6601 42.2562C40.9131 44.1872 41.0345 46.1263 41.0263 48.0585C41.0245 48.4347 41.0139 48.8263 40.8228 49.1542C40.6316 49.482 40.2039 49.7264 39.7904 49.6205C39.3302 49.5031 39.1019 49.0412 38.9666 48.6343C38.7961 48.1209 38.6644 47.5993 38.5743 47.0733C38.5743 47.0733 38.0366 41.1385 38.276 40.1738L38.2758 40.1722Z" fill="#E1E3F5"/>
<path d="M40.5468 48.5111C40.6148 48.717 40.707 48.9363 40.841 49.1185C41.0138 48.798 41.0258 48.4209 41.0275 48.0579C41.0368 46.1255 40.9143 44.1865 40.6613 42.2555C40.5576 41.4593 40.4088 40.6195 39.8811 39.9602C39.8724 39.9904 39.8637 40.0206 39.8562 40.0506C39.6168 41.0153 40.1545 46.9501 40.1545 46.9501C40.2445 47.4761 40.3751 47.9978 40.5468 48.5111Z" fill="#3643BA"/>
<path d="M38.6598 48.9684C38.77 49.3051 38.9734 49.7693 39.5077 49.8669C40.1023 49.9757 40.4442 49.5386 40.5977 49.2042C40.7013 48.9784 40.7571 48.7402 40.8213 48.5072C40.8925 48.2504 40.9558 47.9931 41.0132 47.7345C41.1254 47.227 41.21 46.7168 41.266 46.2045C41.3794 45.1579 41.3782 44.1059 41.2248 43.0613C41.1491 42.5435 41.0349 42.0289 40.8846 41.5201C40.8087 41.2632 40.7227 41.0076 40.6266 40.7549C40.541 40.531 40.4595 40.3013 40.3336 40.0865C40.2184 39.8883 40.0541 39.6776 39.7771 39.5752C39.5002 39.4728 39.1628 39.5283 38.9392 39.6861C38.6931 39.8604 38.6142 40.0948 38.5304 40.3253C38.4375 40.5823 38.3414 40.8288 38.3189 41.0957C38.3124 41.1781 38.4401 41.2432 38.5458 41.2386C38.673 41.233 38.7385 41.1593 38.7462 41.0769C38.7638 40.872 38.8413 40.6743 38.9166 40.4774C38.9816 40.3063 39.016 40.1242 39.1581 39.9741C39.2667 39.8587 39.443 39.7737 39.6254 39.864C39.8077 39.9544 39.897 40.1155 39.9693 40.2522C40.1879 40.6678 40.3303 41.1127 40.4614 41.546C40.6003 42.0034 40.7044 42.4663 40.779 42.9313C41.0746 44.7746 40.9051 46.6465 40.4011 48.4632C40.3386 48.6895 40.2858 48.9219 40.1828 49.1419C40.1165 49.2847 40.0085 49.4862 39.8049 49.5586C39.349 49.7202 39.1298 49.0615 39.0665 48.87C39.0031 48.6785 38.6 48.7792 38.6621 48.9691L38.6598 48.9684Z" fill="#101010"/>
</g>
<path d="M43.2401 41.8566C43.3239 41.5193 43.491 41.1428 43.8517 41.0724C44.1902 41.0066 44.5273 41.2504 44.7493 41.5164C45.3677 42.2572 45.516 43.2281 45.6145 44.1441C45.8393 46.222 45.9309 48.3046 45.8912 50.3779C45.8838 50.7814 45.8669 51.201 45.6678 51.5485C45.4687 51.8959 45.0333 52.1482 44.6168 52.0257C44.1528 51.8889 43.9307 51.3891 43.8002 50.949C43.6356 50.3945 43.5123 49.831 43.4298 49.265C43.4298 49.265 42.9817 42.8851 43.2388 41.855L43.2401 41.8566Z" fill="#E1E3F5"/>
<path d="M45.3999 50.8553C45.466 51.0778 45.5556 51.3151 45.6874 51.5133C45.8679 51.1727 45.8856 50.7693 45.8923 50.3789C45.932 48.3055 45.8403 46.2221 45.6156 44.145C45.5229 43.2882 45.387 42.3842 44.8648 41.6645C44.8549 41.6968 44.8461 41.7291 44.8385 41.7613C44.5814 42.7914 45.0295 49.1713 45.0295 49.1713C45.112 49.7373 45.2365 50.3007 45.3999 50.8553Z" fill="#3643BA"/>
<path d="M44.156 40.9862C44.3568 40.958 44.5529 41.1348 44.6529 41.2332C44.8109 41.3896 44.9261 41.5671 45.0221 41.7462C45.223 42.1187 45.3321 42.5118 45.4014 42.9066C45.5538 43.7865 45.5673 44.6833 45.5982 45.5688C45.6304 46.5014 45.6375 47.4341 45.6162 48.3672C45.6063 48.8293 45.5896 49.2916 45.566 49.7533C45.5441 50.1785 45.553 50.6178 45.4107 51.033C45.3446 51.2258 45.2374 51.4162 45.0363 51.5582C44.8849 51.6649 44.6702 51.7351 44.4681 51.6569C44.2659 51.5787 44.1582 51.4244 44.0778 51.2845C43.9723 51.0993 43.9058 50.9036 43.8553 50.7073C43.8343 50.6268 43.756 50.5584 43.6298 50.5633C43.5264 50.5674 43.4078 50.642 43.4279 50.7241C43.5239 51.0958 43.6462 51.5128 44.026 51.7945C44.4059 52.0763 44.9747 52.0296 45.3518 51.7611C45.7885 51.4506 45.8896 50.9744 45.936 50.5564C45.9909 50.0577 46.0022 49.5549 46.0205 49.0544C46.0581 48.0215 46.0625 46.9883 46.0351 45.9555C46.0219 45.4448 45.9995 44.9345 45.9703 44.4244C45.9426 43.9484 45.9171 43.4707 45.8429 42.9973C45.7686 42.5239 45.637 42.0016 45.3631 41.5418C45.1351 41.159 44.7191 40.6007 44.0186 40.699C43.9058 40.7148 43.8502 40.821 43.8842 40.892C43.9251 40.9782 44.0411 41.0037 44.155 40.9878L44.156 40.9862Z" fill="#101010"/>
<g opacity="0.9">
<path d="M48.2557 43.204C48.3343 42.8882 48.4933 42.5337 48.8492 42.4615C49.1829 42.3936 49.5206 42.6139 49.7441 42.8571C50.3666 43.5344 50.5281 44.436 50.6401 45.2879C50.8931 47.2189 51.0145 49.158 51.0063 51.0903C51.0045 51.4664 50.9939 51.858 50.8027 52.1859C50.6116 52.5137 50.1839 52.7581 49.7704 52.6522C49.3102 52.5348 49.0819 52.073 48.9466 51.6661C48.7761 51.1527 48.6443 50.631 48.5543 50.105C48.5543 50.105 48.0166 44.1702 48.256 43.2056L48.2557 43.204Z" fill="#E1E3F5"/>
<path d="M50.5263 51.5429C50.5943 51.7487 50.6864 51.968 50.8205 52.1503C50.9933 51.8297 51.0053 51.4527 51.007 51.0896C51.0163 49.1573 50.8938 47.2183 50.6407 45.2872C50.5371 44.491 50.3883 43.6512 49.8606 42.992C49.8519 43.0221 49.8432 43.0523 49.8357 43.0824C49.5963 44.047 50.1339 49.9818 50.1339 49.9818C50.224 50.5078 50.3546 51.0296 50.5263 51.5429Z" fill="#3643BA"/>
<path d="M48.6398 51.9997C48.75 52.3363 48.9534 52.8005 49.4877 52.8981C50.0823 53.0069 50.4242 52.5698 50.5777 52.2354C50.6813 52.0097 50.7371 51.7714 50.8013 51.5385C50.8725 51.2817 50.9358 51.0244 50.9932 50.7657C51.1054 50.2583 51.19 49.748 51.246 49.2357C51.3593 48.1892 51.3582 47.1371 51.2048 46.0926C51.1291 45.5747 51.0149 45.0602 50.8646 44.5513C50.7887 44.2945 50.7027 44.0389 50.6066 43.7862C50.521 43.5623 50.4395 43.3325 50.3136 43.1177C50.1983 42.9195 50.034 42.7089 49.7571 42.6064C49.4801 42.504 49.1428 42.5595 48.9192 42.7174C48.6731 42.8917 48.5942 43.126 48.5104 43.3566C48.4175 43.6136 48.3214 43.8601 48.2989 44.127C48.2924 44.2094 48.4201 44.2745 48.5258 44.2698C48.653 44.2642 48.7185 44.1906 48.7262 44.1081C48.7438 43.9033 48.8213 43.7055 48.8966 43.5087C48.9616 43.3375 48.996 43.1555 49.1381 43.0053C49.2467 42.8899 49.423 42.8049 49.6054 42.8953C49.7877 42.9856 49.877 43.1467 49.9493 43.2834C50.1679 43.699 50.3103 44.144 50.4414 44.5773C50.5803 45.0346 50.6844 45.4975 50.7589 45.9626C51.0546 47.8058 50.8851 49.6777 50.3811 51.4944C50.3186 51.7208 50.2658 51.9532 50.1628 52.1732C50.0965 52.316 49.9885 52.5175 49.7849 52.5899C49.329 52.7515 49.1098 52.0928 49.0464 51.9012C48.9831 51.7097 48.58 51.8104 48.6421 52.0004L48.6398 51.9997Z" fill="#101010"/>
</g>
<g opacity="0.9">
<path d="M53.5643 45.0531C53.6428 44.7374 53.8019 44.3828 54.1578 44.3106C54.4915 44.2427 54.8292 44.463 55.0527 44.7062C55.6752 45.3835 55.8367 46.2851 55.9487 47.137C56.2017 49.0681 56.3231 51.0071 56.3149 52.9394C56.3131 53.3155 56.3025 53.7072 56.1113 54.035C55.9202 54.3629 55.4925 54.6072 55.079 54.5013C54.6188 54.3839 54.3905 53.9221 54.2552 53.5152C54.0847 53.0018 53.9529 52.4802 53.8629 51.9541C53.8629 51.9541 53.3252 46.0194 53.5646 45.0547L53.5643 45.0531Z" fill="#E1E3F5"/>
<path d="M55.8349 53.392C55.9029 53.5978 55.995 53.8172 56.129 53.9994C56.3019 53.6788 56.3139 53.3018 56.3156 52.9387C56.3249 51.0064 56.2024 49.0674 55.9493 47.1364C55.8457 46.3401 55.6969 45.5004 55.1691 44.8411C55.1605 44.8712 55.1518 44.9014 55.1443 44.9315C54.9049 45.8962 55.4425 51.8309 55.4425 51.8309C55.5326 52.3569 55.6632 52.8787 55.8349 53.392Z" fill="#3643BA"/>
<path d="M53.9479 53.8493C54.0581 54.1859 54.2615 54.6502 54.7958 54.7478C55.3904 54.8565 55.7323 54.4194 55.8858 54.085C55.9894 53.8593 56.0452 53.621 56.1094 53.3881C56.1806 53.1313 56.2439 52.874 56.3013 52.6153C56.4135 52.1079 56.4981 51.5976 56.5541 51.0854C56.6674 50.0388 56.6663 48.9867 56.5129 47.9422C56.4372 47.4243 56.323 46.9098 56.1727 46.4009C56.0968 46.1441 56.0108 45.8885 55.9147 45.6358C55.8291 45.4119 55.7476 45.1821 55.6217 44.9673C55.5064 44.7692 55.3422 44.5585 55.0652 44.4561C54.7883 44.3536 54.4509 44.4091 54.2273 44.567C53.9812 44.7413 53.9023 44.9757 53.8185 45.2062C53.7256 45.4632 53.6295 45.7097 53.607 45.9766C53.6005 46.059 53.7282 46.1241 53.8339 46.1194C53.9611 46.1138 54.0266 46.0402 54.0343 45.9577C54.0519 45.7529 54.1294 45.5551 54.2047 45.3583C54.2697 45.1871 54.3041 45.0051 54.4462 44.8549C54.5548 44.7396 54.7311 44.6545 54.9135 44.7449C55.0958 44.8352 55.1851 44.9964 55.2574 45.133C55.476 45.5486 55.6184 45.9936 55.7495 46.4269C55.8884 46.8842 55.9925 47.3472 56.067 47.8122C56.3627 49.6554 56.1932 51.5273 55.6892 53.344C55.6267 53.5704 55.5739 53.8028 55.4709 54.0228C55.4046 54.1656 55.2966 54.3671 55.093 54.4395C54.6371 54.6011 54.4179 53.9424 54.3545 53.7509C54.2912 53.5593 53.8881 53.66 53.9502 53.85L53.9479 53.8493Z" fill="#101010"/>
</g>
<g opacity="0.9">
<path d="M58.7265 46.723C58.805 46.4073 58.9641 46.0528 59.3199 45.9805C59.6536 45.9126 59.9913 46.1329 60.2148 46.3761C60.8373 47.0534 60.9989 47.955 61.1108 48.8069C61.3638 50.738 61.4852 52.6771 61.477 54.6093C61.4752 54.9855 61.4646 55.3771 61.2734 55.7049C61.0823 56.0328 60.6546 56.2771 60.2411 56.1712C59.7809 56.0538 59.5526 55.592 59.4173 55.1851C59.2468 54.6717 59.115 54.1501 59.025 53.624C59.025 53.624 58.4873 47.6893 58.7267 46.7246L58.7265 46.723Z" fill="#E1E3F5"/>
<path d="M60.997 55.0619C61.065 55.2678 61.1571 55.4871 61.2912 55.6693C61.464 55.3487 61.476 54.9717 61.4777 54.6086C61.487 52.6763 61.3645 50.7373 61.1115 48.8063C61.0078 48.01 60.859 47.1703 60.3313 46.511C60.3226 46.5412 60.3139 46.5713 60.3064 46.6014C60.067 47.5661 60.6046 53.5008 60.6046 53.5008C60.6947 54.0269 60.8253 54.5486 60.997 55.0619Z" fill="#3643BA"/>
<path d="M59.11 55.5192C59.2202 55.8558 59.4236 56.3201 59.9579 56.4177C60.5525 56.5264 60.8944 56.0894 61.0479 55.7549C61.1515 55.5292 61.2073 55.291 61.2715 55.058C61.3427 54.8012 61.406 54.5439 61.4634 54.2853C61.5756 53.7778 61.6602 53.2675 61.7162 52.7553C61.8296 51.7087 61.8284 50.6566 61.675 49.6121C61.5993 49.0942 61.4851 48.5797 61.3348 48.0708C61.2589 47.814 61.1729 47.5584 61.0768 47.3057C60.9912 47.0818 60.9097 46.8521 60.7838 46.6373C60.6685 46.4391 60.5043 46.2284 60.2273 46.126C59.9504 46.0235 59.613 46.0791 59.3894 46.2369C59.1433 46.4112 59.0644 46.6456 58.9806 46.8761C58.8877 47.1331 58.7916 47.3796 58.7691 47.6465C58.7626 47.7289 58.8903 47.794 58.996 47.7894C59.1232 47.7837 59.1887 47.7101 59.1964 47.6277C59.214 47.4228 59.2915 47.2251 59.3668 47.0282C59.4318 46.857 59.4662 46.675 59.6083 46.5248C59.7169 46.4095 59.8932 46.3245 60.0756 46.4148C60.2579 46.5052 60.3472 46.6663 60.4195 46.8029C60.6381 47.2185 60.7805 47.6635 60.9116 48.0968C61.0505 48.5541 61.1546 49.0171 61.2291 49.4821C61.5248 51.3254 61.3553 53.1972 60.8513 55.0139C60.7888 55.2403 60.736 55.4727 60.633 55.6927C60.5667 55.8355 60.4587 56.037 60.2551 56.1094C59.7992 56.271 59.58 55.6123 59.5167 55.4208C59.4533 55.2292 59.0502 55.3299 59.1123 55.5199L59.11 55.5192Z" fill="#101010"/>
</g>
</g>
<path d="M17.1587 12.875L46.9837 52.0524C46.9837 52.0524 47.5728 53.276 48.4922 52.4946C49.4115 51.7132 48.6686 50.7331 48.6686 50.7331L20.4577 12.235C20.4577 12.235 18.1581 7.37653 25.2182 6.04784C34.9304 5.53601 41.309 12.875 41.309 12.875L62.571 36.2141L64.8491 36.8215L67.279 37.429L43.8963 12.0596C43.8963 12.0596 34.171 1.89108 23.9758 4.24124C13.7806 6.5914 17.1587 12.875 17.1587 12.875Z" fill="#151515"/>
<path d="M18.9179 9.41086L20.0674 8.28437C20.0674 8.28437 19.0723 7.63725 18.4857 7.13032C17.8991 6.62339 16.7769 3.95289 21.3565 2.33379C24.603 0.979747 27.4479 3.21445 28.166 4.22345C28.8841 5.23244 29.2879 5.82809 29.2879 5.82809L31.5639 5.85106C31.5639 5.85106 30.7095 4.79563 30.0383 3.65053C29.367 2.50544 25.9699 -1.2983 20.5452 0.454304C13.972 3.10601 16.3882 7.47309 16.8387 7.93313C17.2892 8.39316 18.9179 9.41086 18.9179 9.41086Z" fill="#151515"/>
<path d="M49.6695 52.4282C49.2748 52.9245 48.6631 53.295 48.0189 53.2836C47.3747 53.2721 46.7417 52.8049 46.6865 52.188C46.6209 51.4507 47.4287 50.803 48.1951 50.8614C48.9615 50.9198 49.5868 51.5372 49.8025 52.2447" fill="#3643BA"/>
<path d="M49.8108 52.1625C49.4401 52.6274 48.8646 53.0115 48.2477 53.0277C47.7089 53.0413 47.1445 52.744 46.9445 52.2424C46.7644 51.7917 46.9869 51.3384 47.3533 51.0455C47.7485 50.7302 48.259 50.658 48.7349 50.8326C49.3141 51.0448 49.7479 51.5804 49.9254 52.1476C49.9673 52.2817 50.0931 52.3759 50.242 52.3428C50.3742 52.3134 50.4878 52.1659 50.4459 52.0318C50.2377 51.3663 49.7828 50.7503 49.1332 50.438C48.4836 50.1257 47.7689 50.1444 47.1717 50.5387C46.6146 50.907 46.2398 51.5354 46.3765 52.1988C46.5259 52.9242 47.2164 53.4303 47.9416 53.5325C48.8481 53.6591 49.7183 53.117 50.2571 52.4403C50.346 52.3292 50.2903 52.1525 50.1774 52.082C50.047 52.0016 49.8986 52.0516 49.8089 52.164L49.8108 52.1625Z" fill="#101010"/>
<path d="M1.14613 45.1357C2.48297 46.7795 3.59475 48.5927 4.44821 50.5327C4.62576 50.935 5.25708 50.6705 5.07917 50.2655C4.20241 48.2747 3.05927 46.4021 1.68626 44.7146C1.40884 44.3725 0.865631 44.7912 1.14459 45.1345L1.14613 45.1357Z" fill="#3643BA"/>
<path d="M1.13077 49.4659C2.6542 48.1906 4.39072 47.1995 6.26297 46.5347C6.67889 46.3872 6.41033 45.7564 5.99576 45.9038C4.07333 46.5863 2.274 47.6147 0.709511 48.9244C0.372212 49.2068 0.790934 49.75 1.12941 49.4661L1.13077 49.4659Z" fill="#3643BA"/>
<path d="M9.88287 24.3536C9.88287 24.3536 9.83233 24.3969 9.82632 24.3936L9.86332 24.3717C9.85053 24.3791 9.8364 24.3866 9.82361 24.394C9.78372 24.415 9.74148 24.4294 9.69964 24.4465C9.62623 24.4751 9.77908 24.4309 9.70235 24.4461C9.68065 24.4492 9.65798 24.4553 9.63628 24.4584C9.61458 24.4615 9.59152 24.4648 9.56982 24.468C9.5549 24.4701 9.53978 24.4709 9.52467 24.4717C9.4861 24.4731 9.49444 24.4733 9.54832 24.4724C9.54598 24.4659 9.42659 24.4637 9.41264 24.4629C9.38996 24.4593 9.36728 24.4556 9.34461 24.4519L9.32173 24.4469C9.28586 24.4383 9.29168 24.4402 9.34073 24.4539C9.29965 24.457 9.10247 24.3858 9.08518 24.3523L9.12144 24.3733C9.10787 24.3656 9.09565 24.3577 9.08207 24.3499C9.06229 24.3376 9.04386 24.325 9.02524 24.3111C9.00507 24.296 8.92498 24.2493 8.9201 24.2251L8.95056 24.254C8.94067 24.2429 8.92941 24.2321 8.91952 24.2211C8.90457 24.2038 8.88963 24.1866 8.87604 24.1692C8.86245 24.1517 8.85003 24.1328 8.83644 24.1153C8.81664 24.0836 8.81897 24.0902 8.84616 24.1347C8.83878 24.1219 8.8314 24.1091 8.82518 24.0948C8.8042 24.0549 8.78845 24.0129 8.77251 23.9695C8.74529 23.8959 8.78384 24.0482 8.77251 23.9695C8.77017 23.9532 8.76666 23.9385 8.76431 23.9222C8.76099 23.8992 8.75883 23.8745 8.75687 23.8513C8.74534 23.7713 8.74998 23.9284 8.75648 23.8486C8.76106 23.7939 8.7672 23.7404 8.77721 23.685C8.79088 23.6069 8.75132 23.7552 8.77933 23.6805C8.78725 23.6586 8.79498 23.6353 8.8029 23.6134C8.81082 23.5915 8.82145 23.5692 8.83092 23.5485C8.83923 23.5293 8.86221 23.4581 8.83266 23.5413C8.84753 23.5004 8.88566 23.4575 8.91237 23.4218C8.9263 23.4032 8.94159 23.3844 8.95687 23.3656C8.96752 23.353 8.97835 23.3417 8.989 23.3291C8.95512 23.3631 8.95145 23.3664 8.97816 23.3404C9.00759 23.314 9.03682 23.2862 9.06935 23.2621C9.08793 23.247 9.10807 23.233 9.12685 23.2192L9.14699 23.2053C9.17875 23.1855 9.17352 23.1876 9.1315 23.213C9.15646 23.1845 9.22407 23.1637 9.25952 23.1503C9.2818 23.1415 9.30427 23.1342 9.32519 23.1256C9.36219 23.1133 9.3556 23.1157 9.30504 23.1299C9.31976 23.1264 9.33585 23.1227 9.35057 23.1192C9.3963 23.1098 9.4428 23.1059 9.49028 23.099C9.57069 23.0902 9.41159 23.091 9.49299 23.0987C9.51683 23.1008 9.54048 23.1015 9.56451 23.105C9.58855 23.1084 9.61142 23.1134 9.63546 23.1169C9.56508 23.0897 9.71629 23.1302 9.63546 23.1169C9.67501 23.132 9.71476 23.1484 9.7547 23.1662C9.82276 23.1965 9.69167 23.1226 9.75315 23.165C9.77138 23.1762 9.78826 23.1876 9.80669 23.2002C9.82686 23.2153 9.88314 23.2792 9.90562 23.2815C9.87345 23.2792 9.85847 23.2329 9.90291 23.2819C9.91766 23.2978 9.93105 23.3138 9.94463 23.3313C9.95822 23.3487 9.97161 23.3648 9.98384 23.3824C9.99238 23.3936 9.99976 23.4064 10.0083 23.4176C10.0281 23.4494 10.0242 23.4416 9.99704 23.3971C9.99164 23.4173 10.0549 23.5106 10.0637 23.5329C10.0784 23.5681 10.0853 23.6253 10.1076 23.6553C10.0696 23.6026 10.0932 23.6034 10.1043 23.6516C10.1111 23.6797 10.1152 23.7082 10.1193 23.7367C10.1225 23.7584 10.1256 23.7801 10.1272 23.8006C10.1291 23.8142 10.1299 23.8293 10.1305 23.8431C10.1317 23.8803 10.1319 23.8719 10.1307 23.8153C10.1175 23.8588 10.1261 23.9185 10.119 23.9652C10.1165 23.9863 10.1111 24.0065 10.1073 24.0278C10.0977 24.0859 10.1326 23.9535 10.1028 24.045C10.0969 24.0611 10.0398 24.1746 10.0451 24.1821C10.0377 24.1693 10.0868 24.1166 10.0447 24.1794C10.0288 24.2038 10.0114 24.2271 9.99379 24.249C9.88252 24.3897 9.91245 24.6263 10.063 24.7292C10.2135 24.8321 10.4235 24.8102 10.5431 24.66C10.8642 24.2552 10.8873 23.6759 10.6744 23.2164C10.4412 22.7128 9.95765 22.3838 9.39509 22.4191C8.83252 22.4545 8.34736 22.8733 8.16191 23.3735C7.96178 23.916 8.14485 24.5043 8.60844 24.8488C9.10152 25.2152 9.81069 25.2654 10.3116 24.8886C10.4553 24.7807 10.4848 24.5438 10.3669 24.4071C10.2489 24.2704 10.0391 24.237 9.88539 24.3519L9.88287 24.3536Z" fill="#3643BA"/>
<path d="M14.1367 46.4843C14.1222 46.5208 14.1076 46.5573 14.0915 46.5926C14.0852 46.6072 14.0775 46.6221 14.0698 46.6369C14.0765 46.625 14.1007 46.5886 14.064 46.646C14.024 46.7093 13.9781 46.7693 13.9257 46.8232C13.9671 46.7804 13.8958 46.8479 13.8835 46.8592C13.8549 46.8837 13.826 46.9055 13.7944 46.9276C13.7805 46.9378 13.7155 46.9795 13.7629 46.9511C13.7257 46.9726 13.6869 46.993 13.6478 47.0106C13.5788 47.0432 13.5063 47.0694 13.4331 47.0915C13.4876 47.0746 13.4104 47.0972 13.3929 47.1009C13.3486 47.1109 13.3053 47.118 13.2605 47.124C13.0732 47.1501 13.0249 47.1509 12.8422 47.1281C12.5416 47.0918 12.297 46.9983 12.0661 46.809C12.049 46.7947 11.9879 46.7406 11.996 46.7492C12.0071 46.7601 11.9573 46.7073 11.9458 46.6936C11.8805 46.6179 11.8184 46.5349 11.7683 46.4489C11.7055 46.3397 11.6232 46.1252 11.5983 46.0097C11.4521 45.3323 11.6736 44.5815 12.2714 44.2302C12.8691 43.8789 13.676 43.9078 14.1743 44.4045C14.6726 44.9013 14.7451 45.8372 14.2693 46.4101C13.9866 46.7502 14.5309 47.1662 14.8137 46.8275C15.4352 46.0805 15.4172 44.9398 14.861 44.1617C14.3048 43.3837 13.1775 43.1373 12.2778 43.4732C11.328 43.8282 10.8095 44.7896 10.8736 45.7764C10.9046 46.252 11.0848 46.7369 11.3941 47.101C11.6775 47.4354 12.0578 47.6464 12.4788 47.7567C13.3534 47.9839 14.4304 47.6509 14.7705 46.7517C14.9261 46.3385 14.2953 46.0735 14.1384 46.4868L14.1367 46.4843Z" fill="#E1E3F5"/>
<path d="M16.4149 21.8125C16.4675 21.8136 16.3649 21.8083 16.351 21.8056C16.3117 21.8014 16.2732 21.7942 16.2346 21.7869C16.196 21.7797 16.1581 21.7695 16.1202 21.7593C16.0823 21.7491 16.1181 21.7575 16.1242 21.7609C16.0981 21.7515 16.0719 21.7422 16.0448 21.732C15.9721 21.7035 15.9001 21.6701 15.8324 21.6315C15.8252 21.6273 15.7645 21.5909 15.7985 21.6122C15.8294 21.6308 15.7829 21.6009 15.7799 21.6002C15.7426 21.5744 15.7061 21.5475 15.6716 21.5205C15.6097 21.4706 15.5515 21.4184 15.4957 21.3612C15.4873 21.3541 15.4522 21.3106 15.4883 21.355C15.4775 21.3424 15.4666 21.3297 15.4557 21.3171C15.4274 21.2827 15.4007 21.2462 15.3741 21.2096C15.3516 21.1766 15.3303 21.1445 15.3098 21.1113C15.2973 21.092 15.2868 21.0725 15.2763 21.0531C15.2798 21.0595 15.2964 21.0931 15.2786 21.0567C15.2416 20.9813 15.2103 20.9033 15.1854 20.8219C15.18 20.8049 15.1578 20.7203 15.162 20.7345C15.17 20.7698 15.1571 20.7019 15.1555 20.6952C15.1531 20.6789 15.1507 20.6625 15.1491 20.6452C15.1446 20.6057 15.142 20.566 15.1394 20.5264C15.1383 20.5041 15.1382 20.4808 15.138 20.4574C15.1377 20.4 15.1339 20.4987 15.1386 20.4418C15.1441 20.3625 15.1564 20.2836 15.1747 20.206C15.1774 20.1922 15.2047 20.0953 15.1895 20.1434C15.2041 20.1002 15.2198 20.058 15.2374 20.0155C15.2686 19.9417 15.305 19.8703 15.3446 19.8016C15.3799 19.74 15.3591 19.7798 15.3505 19.7923C15.36 19.7788 15.3704 19.7642 15.3799 19.7507C15.4092 19.7091 15.4415 19.6683 15.4749 19.6283C15.5908 19.4895 15.6323 19.4526 15.7894 19.35C15.828 19.3251 15.8668 19.3021 15.9067 19.28C15.8631 19.3044 15.9365 19.2657 15.9497 19.2606C16.032 19.224 16.1197 19.1937 16.2084 19.1731C16.1636 19.1839 16.2429 19.168 16.2554 19.1659C16.2977 19.1602 16.341 19.1553 16.3837 19.1534C16.4156 19.1515 16.4477 19.1515 16.4798 19.1516C16.4233 19.1508 16.4768 19.1509 16.4877 19.1528C16.5142 19.1553 16.5407 19.1578 16.5672 19.1602C16.6361 19.1696 16.7026 19.184 16.7702 19.1994C16.8377 19.2147 16.7921 19.2052 16.777 19.1997C16.797 19.2057 16.8172 19.2136 16.8382 19.2205C16.8784 19.2344 16.9178 19.2513 16.9564 19.2692C17.0254 19.2999 17.0908 19.3349 17.1546 19.3739C17.1041 19.3425 17.1672 19.3845 17.1848 19.3955C17.2242 19.4231 17.2619 19.4528 17.2987 19.4835C17.3272 19.5072 17.3566 19.5318 17.3833 19.5577C17.3959 19.5682 17.4057 19.58 17.4174 19.5915C17.4248 19.5977 17.4711 19.647 17.442 19.6156C17.4215 19.5931 17.4856 19.6681 17.4944 19.679C17.5207 19.7116 17.5463 19.7473 17.5708 19.782C17.592 19.8122 17.6115 19.8445 17.6299 19.876C17.6379 19.8898 17.646 19.9037 17.654 19.9176C17.647 19.9046 17.6286 19.8625 17.6565 19.9232C17.6892 19.9952 17.7192 20.0683 17.7416 20.1442C17.7459 20.1603 17.7681 20.2556 17.7561 20.1973C17.7633 20.2337 17.7685 20.2702 17.7728 20.3077C17.7772 20.3453 17.7796 20.383 17.781 20.4198C17.7813 20.4344 17.7818 20.4509 17.7813 20.4665C17.7818 20.5044 17.7873 20.4251 17.7811 20.486C17.7739 20.5567 17.7636 20.6267 17.7485 20.6962C17.7449 20.7111 17.7404 20.7251 17.7369 20.74C17.724 20.7918 17.7539 20.6918 17.736 20.7411C17.723 20.7802 17.7087 20.8165 17.6927 20.8549C17.6767 20.8933 17.6595 20.9289 17.6414 20.9656C17.6338 20.9789 17.6273 20.9931 17.6198 21.0064C17.6198 21.0064 17.5734 21.0855 17.5971 21.0464C17.6208 21.0073 17.586 21.064 17.5799 21.0713C17.5678 21.088 17.5567 21.1055 17.5435 21.1213C17.5193 21.1546 17.4929 21.1862 17.4675 21.2167C17.4376 21.2525 17.4065 21.2854 17.3735 21.3185C17.3639 21.3301 17.3521 21.3399 17.3414 21.3506C17.302 21.3892 17.406 21.301 17.3296 21.3604C17.2641 21.4111 17.2016 21.4625 17.1316 21.5057C17.0975 21.5273 17.0624 21.548 17.0262 21.5678C17.0847 21.5362 16.9869 21.5849 16.9681 21.5924C16.8932 21.6245 16.8165 21.6479 16.7388 21.6705C16.6761 21.6878 16.7216 21.674 16.7359 21.6717C16.711 21.6759 16.6861 21.6801 16.6612 21.6843C16.6208 21.6899 16.5803 21.6935 16.5406 21.6961C16.5252 21.6975 16.5106 21.6979 16.495 21.6973C16.4873 21.698 16.4062 21.6946 16.4473 21.6968C16.4845 21.6992 16.4345 21.695 16.4296 21.6945C16.399 21.6904 16.3687 21.6883 16.338 21.6823C16.1555 21.6549 15.974 21.7783 15.943 21.963C15.9119 22.1478 16.0402 22.3298 16.2237 22.358C17.0325 22.4798 17.8031 22.0271 18.2113 21.3414C18.6457 20.6115 18.4743 19.724 17.9082 19.1212C17.3422 18.5184 16.4379 18.2758 15.6844 18.6268C14.9308 18.9778 14.3513 19.8453 14.4689 20.72C14.6034 21.7159 15.4853 22.4664 16.4761 22.492C16.6614 22.4967 16.8023 22.2894 16.787 22.1195C16.7687 21.9169 16.6009 21.8143 16.4146 21.8087L16.4149 21.8125Z" fill="#E1E3F5"/>
<path d="M49.8427 2.79824C50.1664 4.81612 50.4893 6.83505 50.8131 8.85293C50.8422 9.03613 50.9914 9.18031 51.1855 9.16381C51.3611 9.14799 51.5255 8.9746 51.4964 8.7914C51.1726 6.77352 50.8497 4.75459 50.526 2.73671C50.4968 2.55351 50.3476 2.40933 50.1536 2.42583C49.9779 2.44165 49.8135 2.61504 49.8427 2.79824Z" fill="#3643BA"/>
<path d="M47.6344 6.49585C50.1119 5.79892 52.5895 5.102 55.067 4.40508C55.2445 4.35505 55.3324 4.13212 55.2727 3.96626C55.2055 3.78162 55.0132 3.71039 54.8339 3.7606C52.3563 4.45752 49.8788 5.15444 47.4012 5.85136C47.2238 5.90139 47.1359 6.12432 47.1956 6.29018C47.2628 6.47482 47.455 6.54605 47.6344 6.49585Z" fill="#3643BA"/>
<path d="M36.6267 20.1756C36.9003 20.8881 37.3691 21.5247 37.9875 21.9756C38.1325 22.081 38.3423 22.1095 38.4718 21.9572C38.5802 21.8298 38.6079 21.586 38.4533 21.4729C38.3155 21.3734 38.1853 21.2644 38.0643 21.1461C38.0029 21.0875 37.9448 21.0269 37.8874 20.9635C37.8624 20.9369 37.8169 20.9015 37.8034 20.8676C37.8302 20.8988 37.8343 20.9053 37.8189 20.8865C37.8113 20.8763 37.8024 20.8659 37.7945 20.8572C37.7815 20.8402 37.7684 20.8233 37.7553 20.8063C37.6521 20.671 37.5587 20.5294 37.4748 20.3829C37.4324 20.3089 37.3945 20.2331 37.3567 20.1572C37.3384 20.1195 37.3817 20.2148 37.357 20.1559C37.3488 20.1358 37.3403 20.1171 37.3319 20.0984C37.3135 20.0549 37.2964 20.0118 37.2793 19.9687C37.2155 19.8014 37.0292 19.6799 36.8487 19.7464C36.6834 19.8078 36.558 19.9989 36.6264 20.177L36.6267 20.1756Z" fill="#3643BA"/>
<path d="M36.8033 22.1608C37.6508 21.5648 38.4999 20.9679 39.3474 20.3719C39.4989 20.2653 39.5559 20.0604 39.453 19.8984C39.3573 19.748 39.1323 19.6866 38.9795 19.7929C38.132 20.3888 37.2829 20.9858 36.4354 21.5817C36.2839 21.6884 36.2269 21.8933 36.3298 22.0552C36.4255 22.2057 36.6505 22.2671 36.8033 22.1608Z" fill="#3643BA"/>
<path d="M59.8546 23.692C59.642 22.2647 59.4296 20.8388 59.2171 19.4115C59.1514 18.9751 58.4733 19.0728 58.5389 19.5092C58.7515 20.9365 58.9638 22.3624 59.1764 23.7897C59.242 24.2261 59.9202 24.1284 59.8546 23.692Z" fill="#3643BA"/>
<path d="M56.751 22.2426C58.1186 22.2021 59.4862 22.1615 60.8552 22.1207C61.0398 22.1149 61.1696 21.9009 61.1454 21.7327C61.1165 21.532 60.9435 21.4365 60.7574 21.4425C59.3898 21.4831 58.0222 21.5237 56.6533 21.5645C56.4686 21.5703 56.3388 21.7842 56.363 21.9524C56.392 22.1531 56.5649 22.2487 56.751 22.2426Z" fill="#3643BA"/>
<path d="M68.3401 16.4667C67.9488 16.5951 67.527 16.6946 67.1128 16.6836C66.7849 16.6755 66.4484 16.6077 66.1961 16.4613C65.5951 16.1145 65.3142 15.3852 65.424 14.6868C65.5442 13.926 66.1368 13.3685 66.895 13.2592C67.7495 13.1361 68.4803 13.6151 68.851 14.3717C69.0352 14.7466 69.1568 15.168 69.0424 15.5749C68.9279 15.9819 68.6192 16.2894 68.265 16.5121C68.1089 16.6108 68.1047 16.8606 68.2097 16.9936C68.3349 17.1514 68.5338 17.1477 68.6912 17.0488C69.1039 16.79 69.454 16.4142 69.6333 15.9578C69.8229 15.4763 69.7986 14.962 69.6347 14.4775C69.2826 13.4372 68.3905 12.5786 67.2508 12.5573C66.2081 12.5372 65.2152 13.1219 64.8633 14.1293C64.5336 15.0698 64.7635 16.1568 65.5225 16.8214C66.3794 17.5702 67.6168 17.4238 68.6149 17.0958C68.7908 17.0386 68.8607 16.8029 68.7921 16.6439C68.7118 16.4616 68.5174 16.4093 68.3401 16.4667Z" fill="#E1E3F5"/>
<path d="M66.836 25.8502C66.836 25.8502 66.7855 25.8935 66.7794 25.8902L66.8164 25.8683C66.8037 25.8756 66.7895 25.8832 66.7767 25.8906C66.7368 25.9116 66.6946 25.926 66.6528 25.9431C66.5794 25.9716 66.7322 25.9275 66.6555 25.9427C66.6338 25.9458 66.6111 25.9518 66.5894 25.955C66.5677 25.9581 66.5446 25.9614 66.5229 25.9645C66.508 25.9667 66.4929 25.9675 66.4778 25.9683C66.4392 25.9697 66.4476 25.9699 66.5014 25.969C66.4991 25.9624 66.3797 25.9603 66.3658 25.9595C66.3431 25.9558 66.3204 25.9522 66.2977 25.9485L66.2749 25.9435C66.239 25.9348 66.2448 25.9368 66.2939 25.9505C66.2528 25.9536 66.0556 25.8823 66.0383 25.8488L66.0746 25.8699C66.061 25.8622 66.0488 25.8543 66.0352 25.8465C66.0154 25.8341 65.997 25.8216 65.9784 25.8076C65.9582 25.7925 65.8781 25.7459 65.8732 25.7217L65.9037 25.7505C65.8938 25.7395 65.8825 25.7287 65.8726 25.7176C65.8577 25.7004 65.8428 25.6832 65.8292 25.6658C65.8156 25.6483 65.8032 25.6294 65.7896 25.6119C65.7698 25.5802 65.7721 25.5868 65.7993 25.6313C65.7919 25.6185 65.7845 25.6057 65.7783 25.5914C65.7573 25.5515 65.7416 25.5095 65.7256 25.4661C65.6984 25.3925 65.737 25.5447 65.7256 25.4661C65.7233 25.4498 65.7198 25.4351 65.7174 25.4188C65.7141 25.3957 65.712 25.3711 65.71 25.3479C65.6985 25.2678 65.7031 25.425 65.7096 25.3452C65.7142 25.2905 65.7203 25.237 65.7303 25.1816C65.744 25.1034 65.7044 25.2517 65.7325 25.1771C65.7404 25.1552 65.7481 25.1319 65.756 25.11C65.7639 25.0881 65.7746 25.0658 65.784 25.0451C65.7924 25.0259 65.8153 24.9547 65.7858 25.0379C65.8007 24.997 65.8388 24.9541 65.8655 24.9184C65.8794 24.8998 65.8947 24.881 65.91 24.8622C65.9206 24.8495 65.9315 24.8383 65.9421 24.8257C65.9082 24.8596 65.9046 24.8629 65.9313 24.8369C65.9607 24.8105 65.9899 24.7828 66.0225 24.7587C66.0411 24.7436 66.0612 24.7296 66.08 24.7158L66.1001 24.7019C66.1319 24.682 66.1266 24.6842 66.0846 24.7096C66.1096 24.6811 66.1772 24.6603 66.2126 24.6469C66.2349 24.6381 66.2574 24.6307 66.2783 24.6222C66.3153 24.6099 66.3087 24.6123 66.2582 24.6265C66.2729 24.623 66.289 24.6193 66.3037 24.6158C66.3494 24.6064 66.3959 24.6025 66.4434 24.5956C66.5238 24.5868 66.3647 24.5876 66.4461 24.5952C66.47 24.5973 66.4936 24.5981 66.5176 24.6015C66.5417 24.605 66.5645 24.61 66.5886 24.6135C66.5182 24.5862 66.6694 24.6268 66.5886 24.6135C66.6281 24.6285 66.6679 24.645 66.7078 24.6628C66.7759 24.6931 66.6448 24.6192 66.7063 24.6616C66.7245 24.6728 66.7414 24.6842 66.7598 24.6968C66.78 24.7119 66.8363 24.7758 66.8587 24.7781C66.8266 24.7758 66.8116 24.7295 66.856 24.7785C66.8708 24.7943 66.8842 24.8104 66.8978 24.8278C66.9113 24.8453 66.9247 24.8613 66.937 24.879C66.9455 24.8902 66.9529 24.903 66.9614 24.9142C66.9812 24.946 66.9773 24.9382 66.9502 24.8937C66.9448 24.9138 67.008 25.0072 67.0168 25.0294C67.0316 25.0647 67.0384 25.1219 67.0607 25.1519C67.0227 25.0992 67.0463 25.1 67.0574 25.1482C67.0643 25.1763 67.0684 25.2048 67.0725 25.2333C67.0756 25.255 67.0787 25.2767 67.0803 25.2972C67.0823 25.3108 67.083 25.3259 67.0836 25.3396C67.0848 25.3768 67.085 25.3685 67.0838 25.3119C67.0707 25.3554 67.0793 25.415 67.0722 25.4618C67.0697 25.4829 67.0643 25.503 67.0604 25.5244C67.0508 25.5825 67.0857 25.4501 67.056 25.5416C67.05 25.5577 66.9929 25.6711 66.9982 25.6787C66.9908 25.6659 67.04 25.6131 66.9978 25.676C66.9819 25.7004 66.9645 25.7237 66.9469 25.7456C66.8356 25.8863 66.8656 26.1229 67.0161 26.2258C67.1666 26.3287 67.3767 26.3067 67.4962 26.1566C67.8173 25.7518 67.8404 25.1725 67.6275 24.713C67.3943 24.2094 66.9108 23.8803 66.3482 23.9157C65.7856 23.9511 65.3005 24.3699 65.115 24.8701C64.9149 25.4126 65.098 26.0009 65.5616 26.3453C66.0546 26.7118 66.7638 26.7619 67.2647 26.3852C67.4084 26.2773 67.438 26.0404 67.32 25.9037C67.202 25.767 66.9923 25.7336 66.8385 25.8485L66.836 25.8502Z" fill="#3643BA"/>
<path d="M80.4108 20.03C80.2551 21.569 80.0985 23.1062 79.9428 24.6452C79.8983 25.0837 80.5811 25.1375 80.626 24.6978C80.7817 23.1588 80.9383 21.6216 81.094 20.0826C81.1384 19.6441 80.4557 19.5903 80.4108 20.03Z" fill="#3643BA"/>
<path d="M78.5175 22.7719C79.7699 23.2657 81.0836 23.598 82.4198 23.7666C82.8571 23.8223 82.9097 23.1391 82.4723 23.0834C81.1949 22.9215 79.9474 22.5999 78.7499 22.1274C78.339 21.9661 78.1066 22.6107 78.5175 22.7719Z" fill="#3643BA"/>
<path d="M77.8168 32.8704C76.8865 32.8366 76.0661 32.1707 75.7518 31.297C75.4375 30.4233 75.8317 29.435 76.5886 28.879C77.3455 28.323 78.3892 28.2929 79.1509 28.8953C79.9127 29.4977 80.269 30.5337 79.9082 31.4292C79.5038 32.4298 78.27 33.06 77.2279 32.7543C76.8066 32.63 76.5716 33.2737 76.9955 33.3988C78.2205 33.7589 79.6096 33.2109 80.3023 32.1423C80.9949 31.0737 80.7919 29.637 79.9355 28.6989C79.5087 28.2304 78.9556 27.9057 78.3316 27.79C77.7461 27.6808 77.1171 27.8051 76.592 28.0776C75.5054 28.6429 74.7743 29.8346 74.9886 31.0743C75.2162 32.3946 76.4146 33.507 77.7651 33.5554C78.2038 33.5708 78.2607 32.8877 77.8176 32.8722L77.8168 32.8704Z" fill="#E1E3F5"/>
<path d="M86.338 29.0609C86.2451 30.1025 86.0274 31.1224 85.6831 32.1097C85.5385 32.5267 86.1831 32.7591 86.3276 32.3421C86.6902 31.3002 86.9234 30.213 87.0207 29.1148C87.0595 28.6757 86.3768 28.6219 86.3375 29.0622L86.338 29.0609Z" fill="#3643BA"/>
<path d="M84.2672 30.2869C85.4533 30.1566 86.6585 30.4906 87.6212 31.1902C87.979 31.4503 88.3737 30.889 88.0167 30.6307C86.9002 29.8203 85.5109 29.4636 84.1427 29.6141C83.9593 29.634 83.8363 29.8416 83.8677 30.0132C83.9029 30.2065 84.0821 30.3075 84.2668 30.2882L84.2672 30.2869Z" fill="#3643BA"/>
<defs>
<linearGradient id="paint0_linear_2085_13107" x1="15.7032" y1="34.3221" x2="80.4867" y2="46.4529" gradientUnits="userSpaceOnUse">
<stop stop-color="#014C73"/>
<stop offset="0.0001" stop-color="#00537E"/>
<stop offset="1" stop-color="#014C73"/>
</linearGradient>
</defs>
</svg>
